%TF.GenerationSoftware,KiCad,Pcbnew,(6.0.0-0)*%
%TF.CreationDate,2022-10-24T17:37:49+01:00*%
%TF.ProjectId,PicoPyro,5069636f-5079-4726-9f2e-6b696361645f,rev?*%
%TF.SameCoordinates,Original*%
%TF.FileFunction,Legend,Top*%
%TF.FilePolarity,Positive*%
%FSLAX46Y46*%
G04 Gerber Fmt 4.6, Leading zero omitted, Abs format (unit mm)*
G04 Created by KiCad (PCBNEW (6.0.0-0)) date 2022-10-24 17:37:49*
%MOMM*%
%LPD*%
G01*
G04 APERTURE LIST*
%ADD10C,1.250000*%
%ADD11C,0.300000*%
%ADD12C,0.150000*%
%ADD13C,0.254000*%
%ADD14C,0.127000*%
%ADD15C,0.200000*%
%ADD16C,0.100000*%
%ADD17C,0.120000*%
G04 APERTURE END LIST*
D10*
X143190476Y-100761904D02*
X143190476Y-95761904D01*
X145095238Y-95761904D01*
X145571428Y-96000000D01*
X145809523Y-96238095D01*
X146047619Y-96714285D01*
X146047619Y-97428571D01*
X145809523Y-97904761D01*
X145571428Y-98142857D01*
X145095238Y-98380952D01*
X143190476Y-98380952D01*
X151047619Y-100285714D02*
X150809523Y-100523809D01*
X150095238Y-100761904D01*
X149619047Y-100761904D01*
X148904761Y-100523809D01*
X148428571Y-100047619D01*
X148190476Y-99571428D01*
X147952380Y-98619047D01*
X147952380Y-97904761D01*
X148190476Y-96952380D01*
X148428571Y-96476190D01*
X148904761Y-96000000D01*
X149619047Y-95761904D01*
X150095238Y-95761904D01*
X150809523Y-96000000D01*
X151047619Y-96238095D01*
X153190476Y-100761904D02*
X153190476Y-95761904D01*
X156523809Y-95761904D02*
X157476190Y-95761904D01*
X157952380Y-96000000D01*
X158428571Y-96476190D01*
X158666666Y-97428571D01*
X158666666Y-99095238D01*
X158428571Y-100047619D01*
X157952380Y-100523809D01*
X157476190Y-100761904D01*
X156523809Y-100761904D01*
X156047619Y-100523809D01*
X155571428Y-100047619D01*
X155333333Y-99095238D01*
X155333333Y-97428571D01*
X155571428Y-96476190D01*
X156047619Y-96000000D01*
X156523809Y-95761904D01*
X160809523Y-100285714D02*
X161047619Y-100523809D01*
X160809523Y-100761904D01*
X160571428Y-100523809D01*
X160809523Y-100285714D01*
X160809523Y-100761904D01*
X160809523Y-98857142D02*
X160571428Y-96000000D01*
X160809523Y-95761904D01*
X161047619Y-96000000D01*
X160809523Y-98857142D01*
X160809523Y-95761904D01*
D11*
X180378571Y-116978571D02*
X179664285Y-117478571D01*
X180378571Y-117835714D02*
X178878571Y-117835714D01*
X178878571Y-117264285D01*
X178950000Y-117121428D01*
X179021428Y-117050000D01*
X179164285Y-116978571D01*
X179378571Y-116978571D01*
X179521428Y-117050000D01*
X179592857Y-117121428D01*
X179664285Y-117264285D01*
X179664285Y-117835714D01*
X179592857Y-116335714D02*
X179592857Y-115835714D01*
X180378571Y-115621428D02*
X180378571Y-116335714D01*
X178878571Y-116335714D01*
X178878571Y-115621428D01*
X180307142Y-115050000D02*
X180378571Y-114835714D01*
X180378571Y-114478571D01*
X180307142Y-114335714D01*
X180235714Y-114264285D01*
X180092857Y-114192857D01*
X179950000Y-114192857D01*
X179807142Y-114264285D01*
X179735714Y-114335714D01*
X179664285Y-114478571D01*
X179592857Y-114764285D01*
X179521428Y-114907142D01*
X179450000Y-114978571D01*
X179307142Y-115050000D01*
X179164285Y-115050000D01*
X179021428Y-114978571D01*
X178950000Y-114907142D01*
X178878571Y-114764285D01*
X178878571Y-114407142D01*
X178950000Y-114192857D01*
X179592857Y-113550000D02*
X179592857Y-113050000D01*
X180378571Y-112835714D02*
X180378571Y-113550000D01*
X178878571Y-113550000D01*
X178878571Y-112835714D01*
X178878571Y-112407142D02*
X178878571Y-111550000D01*
X180378571Y-111978571D02*
X178878571Y-111978571D01*
X208135714Y-89678571D02*
X208135714Y-88178571D01*
X208492857Y-88178571D01*
X208707142Y-88250000D01*
X208850000Y-88392857D01*
X208921428Y-88535714D01*
X208992857Y-88821428D01*
X208992857Y-89035714D01*
X208921428Y-89321428D01*
X208850000Y-89464285D01*
X208707142Y-89607142D01*
X208492857Y-89678571D01*
X208135714Y-89678571D01*
X209635714Y-89678571D02*
X209635714Y-88178571D01*
X210135714Y-89250000D01*
X210635714Y-88178571D01*
X210635714Y-89678571D01*
X211207142Y-88178571D02*
X212207142Y-89678571D01*
X212207142Y-88178571D02*
X211207142Y-89678571D01*
X140742857Y-118778571D02*
X140742857Y-117278571D01*
X141100000Y-117278571D01*
X141314285Y-117350000D01*
X141457142Y-117492857D01*
X141528571Y-117635714D01*
X141600000Y-117921428D01*
X141600000Y-118135714D01*
X141528571Y-118421428D01*
X141457142Y-118564285D01*
X141314285Y-118707142D01*
X141100000Y-118778571D01*
X140742857Y-118778571D01*
X142242857Y-117992857D02*
X142742857Y-117992857D01*
X142957142Y-118778571D02*
X142242857Y-118778571D01*
X142242857Y-117278571D01*
X142957142Y-117278571D01*
X144100000Y-117992857D02*
X144314285Y-118064285D01*
X144385714Y-118135714D01*
X144457142Y-118278571D01*
X144457142Y-118492857D01*
X144385714Y-118635714D01*
X144314285Y-118707142D01*
X144171428Y-118778571D01*
X143600000Y-118778571D01*
X143600000Y-117278571D01*
X144100000Y-117278571D01*
X144242857Y-117350000D01*
X144314285Y-117421428D01*
X144385714Y-117564285D01*
X144385714Y-117707142D01*
X144314285Y-117850000D01*
X144242857Y-117921428D01*
X144100000Y-117992857D01*
X143600000Y-117992857D01*
X145100000Y-117278571D02*
X145100000Y-118492857D01*
X145171428Y-118635714D01*
X145242857Y-118707142D01*
X145385714Y-118778571D01*
X145671428Y-118778571D01*
X145814285Y-118707142D01*
X145885714Y-118635714D01*
X145957142Y-118492857D01*
X145957142Y-117278571D01*
X147457142Y-117350000D02*
X147314285Y-117278571D01*
X147100000Y-117278571D01*
X146885714Y-117350000D01*
X146742857Y-117492857D01*
X146671428Y-117635714D01*
X146600000Y-117921428D01*
X146600000Y-118135714D01*
X146671428Y-118421428D01*
X146742857Y-118564285D01*
X146885714Y-118707142D01*
X147100000Y-118778571D01*
X147242857Y-118778571D01*
X147457142Y-118707142D01*
X147528571Y-118635714D01*
X147528571Y-118135714D01*
X147242857Y-118135714D01*
X129635714Y-83150000D02*
X130350000Y-83150000D01*
X129492857Y-83578571D02*
X129992857Y-82078571D01*
X130492857Y-83578571D01*
X131850000Y-83578571D02*
X131350000Y-82864285D01*
X130992857Y-83578571D02*
X130992857Y-82078571D01*
X131564285Y-82078571D01*
X131707142Y-82150000D01*
X131778571Y-82221428D01*
X131850000Y-82364285D01*
X131850000Y-82578571D01*
X131778571Y-82721428D01*
X131707142Y-82792857D01*
X131564285Y-82864285D01*
X130992857Y-82864285D01*
X132492857Y-83578571D02*
X132492857Y-82078571D01*
X132992857Y-83150000D01*
X133492857Y-82078571D01*
X133492857Y-83578571D01*
D12*
%TO.C,U501*%
X172952380Y-78214285D02*
X173761904Y-78214285D01*
X173857142Y-78166666D01*
X173904761Y-78119047D01*
X173952380Y-78023809D01*
X173952380Y-77833333D01*
X173904761Y-77738095D01*
X173857142Y-77690476D01*
X173761904Y-77642857D01*
X172952380Y-77642857D01*
X172952380Y-76690476D02*
X172952380Y-77166666D01*
X173428571Y-77214285D01*
X173380952Y-77166666D01*
X173333333Y-77071428D01*
X173333333Y-76833333D01*
X173380952Y-76738095D01*
X173428571Y-76690476D01*
X173523809Y-76642857D01*
X173761904Y-76642857D01*
X173857142Y-76690476D01*
X173904761Y-76738095D01*
X173952380Y-76833333D01*
X173952380Y-77071428D01*
X173904761Y-77166666D01*
X173857142Y-77214285D01*
X172952380Y-76023809D02*
X172952380Y-75928571D01*
X173000000Y-75833333D01*
X173047619Y-75785714D01*
X173142857Y-75738095D01*
X173333333Y-75690476D01*
X173571428Y-75690476D01*
X173761904Y-75738095D01*
X173857142Y-75785714D01*
X173904761Y-75833333D01*
X173952380Y-75928571D01*
X173952380Y-76023809D01*
X173904761Y-76119047D01*
X173857142Y-76166666D01*
X173761904Y-76214285D01*
X173571428Y-76261904D01*
X173333333Y-76261904D01*
X173142857Y-76214285D01*
X173047619Y-76166666D01*
X173000000Y-76119047D01*
X172952380Y-76023809D01*
X173952380Y-74738095D02*
X173952380Y-75309523D01*
X173952380Y-75023809D02*
X172952380Y-75023809D01*
X173095238Y-75119047D01*
X173190476Y-75214285D01*
X173238095Y-75309523D01*
D13*
%TO.C,S701*%
X170322857Y-113014047D02*
X170504285Y-113074523D01*
X170806666Y-113074523D01*
X170927619Y-113014047D01*
X170988095Y-112953571D01*
X171048571Y-112832619D01*
X171048571Y-112711666D01*
X170988095Y-112590714D01*
X170927619Y-112530238D01*
X170806666Y-112469761D01*
X170564761Y-112409285D01*
X170443809Y-112348809D01*
X170383333Y-112288333D01*
X170322857Y-112167380D01*
X170322857Y-112046428D01*
X170383333Y-111925476D01*
X170443809Y-111865000D01*
X170564761Y-111804523D01*
X170867142Y-111804523D01*
X171048571Y-111865000D01*
X171471904Y-111804523D02*
X172318571Y-111804523D01*
X171774285Y-113074523D01*
X173044285Y-111804523D02*
X173165238Y-111804523D01*
X173286190Y-111865000D01*
X173346666Y-111925476D01*
X173407142Y-112046428D01*
X173467619Y-112288333D01*
X173467619Y-112590714D01*
X173407142Y-112832619D01*
X173346666Y-112953571D01*
X173286190Y-113014047D01*
X173165238Y-113074523D01*
X173044285Y-113074523D01*
X172923333Y-113014047D01*
X172862857Y-112953571D01*
X172802380Y-112832619D01*
X172741904Y-112590714D01*
X172741904Y-112288333D01*
X172802380Y-112046428D01*
X172862857Y-111925476D01*
X172923333Y-111865000D01*
X173044285Y-111804523D01*
X174677142Y-113074523D02*
X173951428Y-113074523D01*
X174314285Y-113074523D02*
X174314285Y-111804523D01*
X174193333Y-111985952D01*
X174072380Y-112106904D01*
X173951428Y-112167380D01*
%TO.C,Q501*%
X182669523Y-83195476D02*
X182548571Y-83135000D01*
X182427619Y-83014047D01*
X182246190Y-82832619D01*
X182125238Y-82772142D01*
X182004285Y-82772142D01*
X182064761Y-83074523D02*
X181943809Y-83014047D01*
X181822857Y-82893095D01*
X181762380Y-82651190D01*
X181762380Y-82227857D01*
X181822857Y-81985952D01*
X181943809Y-81865000D01*
X182064761Y-81804523D01*
X182306666Y-81804523D01*
X182427619Y-81865000D01*
X182548571Y-81985952D01*
X182609047Y-82227857D01*
X182609047Y-82651190D01*
X182548571Y-82893095D01*
X182427619Y-83014047D01*
X182306666Y-83074523D01*
X182064761Y-83074523D01*
X183758095Y-81804523D02*
X183153333Y-81804523D01*
X183092857Y-82409285D01*
X183153333Y-82348809D01*
X183274285Y-82288333D01*
X183576666Y-82288333D01*
X183697619Y-82348809D01*
X183758095Y-82409285D01*
X183818571Y-82530238D01*
X183818571Y-82832619D01*
X183758095Y-82953571D01*
X183697619Y-83014047D01*
X183576666Y-83074523D01*
X183274285Y-83074523D01*
X183153333Y-83014047D01*
X183092857Y-82953571D01*
X184604761Y-81804523D02*
X184725714Y-81804523D01*
X184846666Y-81865000D01*
X184907142Y-81925476D01*
X184967619Y-82046428D01*
X185028095Y-82288333D01*
X185028095Y-82590714D01*
X184967619Y-82832619D01*
X184907142Y-82953571D01*
X184846666Y-83014047D01*
X184725714Y-83074523D01*
X184604761Y-83074523D01*
X184483809Y-83014047D01*
X184423333Y-82953571D01*
X184362857Y-82832619D01*
X184302380Y-82590714D01*
X184302380Y-82288333D01*
X184362857Y-82046428D01*
X184423333Y-81925476D01*
X184483809Y-81865000D01*
X184604761Y-81804523D01*
X186237619Y-83074523D02*
X185511904Y-83074523D01*
X185874761Y-83074523D02*
X185874761Y-81804523D01*
X185753809Y-81985952D01*
X185632857Y-82106904D01*
X185511904Y-82167380D01*
%TO.C,Q211*%
X146469523Y-73195476D02*
X146348571Y-73135000D01*
X146227619Y-73014047D01*
X146046190Y-72832619D01*
X145925238Y-72772142D01*
X145804285Y-72772142D01*
X145864761Y-73074523D02*
X145743809Y-73014047D01*
X145622857Y-72893095D01*
X145562380Y-72651190D01*
X145562380Y-72227857D01*
X145622857Y-71985952D01*
X145743809Y-71865000D01*
X145864761Y-71804523D01*
X146106666Y-71804523D01*
X146227619Y-71865000D01*
X146348571Y-71985952D01*
X146409047Y-72227857D01*
X146409047Y-72651190D01*
X146348571Y-72893095D01*
X146227619Y-73014047D01*
X146106666Y-73074523D01*
X145864761Y-73074523D01*
X146892857Y-71925476D02*
X146953333Y-71865000D01*
X147074285Y-71804523D01*
X147376666Y-71804523D01*
X147497619Y-71865000D01*
X147558095Y-71925476D01*
X147618571Y-72046428D01*
X147618571Y-72167380D01*
X147558095Y-72348809D01*
X146832380Y-73074523D01*
X147618571Y-73074523D01*
X148828095Y-73074523D02*
X148102380Y-73074523D01*
X148465238Y-73074523D02*
X148465238Y-71804523D01*
X148344285Y-71985952D01*
X148223333Y-72106904D01*
X148102380Y-72167380D01*
X150037619Y-73074523D02*
X149311904Y-73074523D01*
X149674761Y-73074523D02*
X149674761Y-71804523D01*
X149553809Y-71985952D01*
X149432857Y-72106904D01*
X149311904Y-72167380D01*
%TO.C,Q201*%
X161729523Y-73195476D02*
X161608571Y-73135000D01*
X161487619Y-73014047D01*
X161306190Y-72832619D01*
X161185238Y-72772142D01*
X161064285Y-72772142D01*
X161124761Y-73074523D02*
X161003809Y-73014047D01*
X160882857Y-72893095D01*
X160822380Y-72651190D01*
X160822380Y-72227857D01*
X160882857Y-71985952D01*
X161003809Y-71865000D01*
X161124761Y-71804523D01*
X161366666Y-71804523D01*
X161487619Y-71865000D01*
X161608571Y-71985952D01*
X161669047Y-72227857D01*
X161669047Y-72651190D01*
X161608571Y-72893095D01*
X161487619Y-73014047D01*
X161366666Y-73074523D01*
X161124761Y-73074523D01*
X162152857Y-71925476D02*
X162213333Y-71865000D01*
X162334285Y-71804523D01*
X162636666Y-71804523D01*
X162757619Y-71865000D01*
X162818095Y-71925476D01*
X162878571Y-72046428D01*
X162878571Y-72167380D01*
X162818095Y-72348809D01*
X162092380Y-73074523D01*
X162878571Y-73074523D01*
X163664761Y-71804523D02*
X163785714Y-71804523D01*
X163906666Y-71865000D01*
X163967142Y-71925476D01*
X164027619Y-72046428D01*
X164088095Y-72288333D01*
X164088095Y-72590714D01*
X164027619Y-72832619D01*
X163967142Y-72953571D01*
X163906666Y-73014047D01*
X163785714Y-73074523D01*
X163664761Y-73074523D01*
X163543809Y-73014047D01*
X163483333Y-72953571D01*
X163422857Y-72832619D01*
X163362380Y-72590714D01*
X163362380Y-72288333D01*
X163422857Y-72046428D01*
X163483333Y-71925476D01*
X163543809Y-71865000D01*
X163664761Y-71804523D01*
X165297619Y-73074523D02*
X164571904Y-73074523D01*
X164934761Y-73074523D02*
X164934761Y-71804523D01*
X164813809Y-71985952D01*
X164692857Y-72106904D01*
X164571904Y-72167380D01*
%TO.C,J501*%
X173857142Y-64304523D02*
X173857142Y-65211666D01*
X173796666Y-65393095D01*
X173675714Y-65514047D01*
X173494285Y-65574523D01*
X173373333Y-65574523D01*
X175066666Y-64304523D02*
X174461904Y-64304523D01*
X174401428Y-64909285D01*
X174461904Y-64848809D01*
X174582857Y-64788333D01*
X174885238Y-64788333D01*
X175006190Y-64848809D01*
X175066666Y-64909285D01*
X175127142Y-65030238D01*
X175127142Y-65332619D01*
X175066666Y-65453571D01*
X175006190Y-65514047D01*
X174885238Y-65574523D01*
X174582857Y-65574523D01*
X174461904Y-65514047D01*
X174401428Y-65453571D01*
X175913333Y-64304523D02*
X176034285Y-64304523D01*
X176155238Y-64365000D01*
X176215714Y-64425476D01*
X176276190Y-64546428D01*
X176336666Y-64788333D01*
X176336666Y-65090714D01*
X176276190Y-65332619D01*
X176215714Y-65453571D01*
X176155238Y-65514047D01*
X176034285Y-65574523D01*
X175913333Y-65574523D01*
X175792380Y-65514047D01*
X175731904Y-65453571D01*
X175671428Y-65332619D01*
X175610952Y-65090714D01*
X175610952Y-64788333D01*
X175671428Y-64546428D01*
X175731904Y-64425476D01*
X175792380Y-64365000D01*
X175913333Y-64304523D01*
X177546190Y-65574523D02*
X176820476Y-65574523D01*
X177183333Y-65574523D02*
X177183333Y-64304523D01*
X177062380Y-64485952D01*
X176941428Y-64606904D01*
X176820476Y-64667380D01*
%TO.C,J202*%
X143367142Y-64304523D02*
X143367142Y-65211666D01*
X143306666Y-65393095D01*
X143185714Y-65514047D01*
X143004285Y-65574523D01*
X142883333Y-65574523D01*
X143911428Y-64425476D02*
X143971904Y-64365000D01*
X144092857Y-64304523D01*
X144395238Y-64304523D01*
X144516190Y-64365000D01*
X144576666Y-64425476D01*
X144637142Y-64546428D01*
X144637142Y-64667380D01*
X144576666Y-64848809D01*
X143850952Y-65574523D01*
X144637142Y-65574523D01*
X145423333Y-64304523D02*
X145544285Y-64304523D01*
X145665238Y-64365000D01*
X145725714Y-64425476D01*
X145786190Y-64546428D01*
X145846666Y-64788333D01*
X145846666Y-65090714D01*
X145786190Y-65332619D01*
X145725714Y-65453571D01*
X145665238Y-65514047D01*
X145544285Y-65574523D01*
X145423333Y-65574523D01*
X145302380Y-65514047D01*
X145241904Y-65453571D01*
X145181428Y-65332619D01*
X145120952Y-65090714D01*
X145120952Y-64788333D01*
X145181428Y-64546428D01*
X145241904Y-64425476D01*
X145302380Y-64365000D01*
X145423333Y-64304523D01*
X146330476Y-64425476D02*
X146390952Y-64365000D01*
X146511904Y-64304523D01*
X146814285Y-64304523D01*
X146935238Y-64365000D01*
X146995714Y-64425476D01*
X147056190Y-64546428D01*
X147056190Y-64667380D01*
X146995714Y-64848809D01*
X146270000Y-65574523D01*
X147056190Y-65574523D01*
%TO.C,J201*%
X158617142Y-64304523D02*
X158617142Y-65211666D01*
X158556666Y-65393095D01*
X158435714Y-65514047D01*
X158254285Y-65574523D01*
X158133333Y-65574523D01*
X159161428Y-64425476D02*
X159221904Y-64365000D01*
X159342857Y-64304523D01*
X159645238Y-64304523D01*
X159766190Y-64365000D01*
X159826666Y-64425476D01*
X159887142Y-64546428D01*
X159887142Y-64667380D01*
X159826666Y-64848809D01*
X159100952Y-65574523D01*
X159887142Y-65574523D01*
X160673333Y-64304523D02*
X160794285Y-64304523D01*
X160915238Y-64365000D01*
X160975714Y-64425476D01*
X161036190Y-64546428D01*
X161096666Y-64788333D01*
X161096666Y-65090714D01*
X161036190Y-65332619D01*
X160975714Y-65453571D01*
X160915238Y-65514047D01*
X160794285Y-65574523D01*
X160673333Y-65574523D01*
X160552380Y-65514047D01*
X160491904Y-65453571D01*
X160431428Y-65332619D01*
X160370952Y-65090714D01*
X160370952Y-64788333D01*
X160431428Y-64546428D01*
X160491904Y-64425476D01*
X160552380Y-64365000D01*
X160673333Y-64304523D01*
X162306190Y-65574523D02*
X161580476Y-65574523D01*
X161943333Y-65574523D02*
X161943333Y-64304523D01*
X161822380Y-64485952D01*
X161701428Y-64606904D01*
X161580476Y-64667380D01*
%TO.C,F211*%
X139909285Y-78132857D02*
X139909285Y-78556190D01*
X140574523Y-78556190D02*
X139304523Y-78556190D01*
X139304523Y-77951428D01*
X139425476Y-77528095D02*
X139365000Y-77467619D01*
X139304523Y-77346666D01*
X139304523Y-77044285D01*
X139365000Y-76923333D01*
X139425476Y-76862857D01*
X139546428Y-76802380D01*
X139667380Y-76802380D01*
X139848809Y-76862857D01*
X140574523Y-77588571D01*
X140574523Y-76802380D01*
X140574523Y-75592857D02*
X140574523Y-76318571D01*
X140574523Y-75955714D02*
X139304523Y-75955714D01*
X139485952Y-76076666D01*
X139606904Y-76197619D01*
X139667380Y-76318571D01*
X140574523Y-74383333D02*
X140574523Y-75109047D01*
X140574523Y-74746190D02*
X139304523Y-74746190D01*
X139485952Y-74867142D01*
X139606904Y-74988095D01*
X139667380Y-75109047D01*
%TO.C,F201*%
X154909285Y-78132857D02*
X154909285Y-78556190D01*
X155574523Y-78556190D02*
X154304523Y-78556190D01*
X154304523Y-77951428D01*
X154425476Y-77528095D02*
X154365000Y-77467619D01*
X154304523Y-77346666D01*
X154304523Y-77044285D01*
X154365000Y-76923333D01*
X154425476Y-76862857D01*
X154546428Y-76802380D01*
X154667380Y-76802380D01*
X154848809Y-76862857D01*
X155574523Y-77588571D01*
X155574523Y-76802380D01*
X154304523Y-76016190D02*
X154304523Y-75895238D01*
X154365000Y-75774285D01*
X154425476Y-75713809D01*
X154546428Y-75653333D01*
X154788333Y-75592857D01*
X155090714Y-75592857D01*
X155332619Y-75653333D01*
X155453571Y-75713809D01*
X155514047Y-75774285D01*
X155574523Y-75895238D01*
X155574523Y-76016190D01*
X155514047Y-76137142D01*
X155453571Y-76197619D01*
X155332619Y-76258095D01*
X155090714Y-76318571D01*
X154788333Y-76318571D01*
X154546428Y-76258095D01*
X154425476Y-76197619D01*
X154365000Y-76137142D01*
X154304523Y-76016190D01*
X155574523Y-74383333D02*
X155574523Y-75109047D01*
X155574523Y-74746190D02*
X154304523Y-74746190D01*
X154485952Y-74867142D01*
X154606904Y-74988095D01*
X154667380Y-75109047D01*
D12*
%TO.C,J503*%
X186214285Y-72347380D02*
X186214285Y-73061666D01*
X186166666Y-73204523D01*
X186071428Y-73299761D01*
X185928571Y-73347380D01*
X185833333Y-73347380D01*
X187166666Y-72347380D02*
X186690476Y-72347380D01*
X186642857Y-72823571D01*
X186690476Y-72775952D01*
X186785714Y-72728333D01*
X187023809Y-72728333D01*
X187119047Y-72775952D01*
X187166666Y-72823571D01*
X187214285Y-72918809D01*
X187214285Y-73156904D01*
X187166666Y-73252142D01*
X187119047Y-73299761D01*
X187023809Y-73347380D01*
X186785714Y-73347380D01*
X186690476Y-73299761D01*
X186642857Y-73252142D01*
X187833333Y-72347380D02*
X187928571Y-72347380D01*
X188023809Y-72395000D01*
X188071428Y-72442619D01*
X188119047Y-72537857D01*
X188166666Y-72728333D01*
X188166666Y-72966428D01*
X188119047Y-73156904D01*
X188071428Y-73252142D01*
X188023809Y-73299761D01*
X187928571Y-73347380D01*
X187833333Y-73347380D01*
X187738095Y-73299761D01*
X187690476Y-73252142D01*
X187642857Y-73156904D01*
X187595238Y-72966428D01*
X187595238Y-72728333D01*
X187642857Y-72537857D01*
X187690476Y-72442619D01*
X187738095Y-72395000D01*
X187833333Y-72347380D01*
X188500000Y-72347380D02*
X189119047Y-72347380D01*
X188785714Y-72728333D01*
X188928571Y-72728333D01*
X189023809Y-72775952D01*
X189071428Y-72823571D01*
X189119047Y-72918809D01*
X189119047Y-73156904D01*
X189071428Y-73252142D01*
X189023809Y-73299761D01*
X188928571Y-73347380D01*
X188642857Y-73347380D01*
X188547619Y-73299761D01*
X188500000Y-73252142D01*
%TO.C,C502*%
X182714285Y-77671428D02*
X182742857Y-77700000D01*
X182771428Y-77785714D01*
X182771428Y-77842857D01*
X182742857Y-77928571D01*
X182685714Y-77985714D01*
X182628571Y-78014285D01*
X182514285Y-78042857D01*
X182428571Y-78042857D01*
X182314285Y-78014285D01*
X182257142Y-77985714D01*
X182200000Y-77928571D01*
X182171428Y-77842857D01*
X182171428Y-77785714D01*
X182200000Y-77700000D01*
X182228571Y-77671428D01*
X182171428Y-77128571D02*
X182171428Y-77414285D01*
X182457142Y-77442857D01*
X182428571Y-77414285D01*
X182400000Y-77357142D01*
X182400000Y-77214285D01*
X182428571Y-77157142D01*
X182457142Y-77128571D01*
X182514285Y-77100000D01*
X182657142Y-77100000D01*
X182714285Y-77128571D01*
X182742857Y-77157142D01*
X182771428Y-77214285D01*
X182771428Y-77357142D01*
X182742857Y-77414285D01*
X182714285Y-77442857D01*
X182171428Y-76728571D02*
X182171428Y-76671428D01*
X182200000Y-76614285D01*
X182228571Y-76585714D01*
X182285714Y-76557142D01*
X182400000Y-76528571D01*
X182542857Y-76528571D01*
X182657142Y-76557142D01*
X182714285Y-76585714D01*
X182742857Y-76614285D01*
X182771428Y-76671428D01*
X182771428Y-76728571D01*
X182742857Y-76785714D01*
X182714285Y-76814285D01*
X182657142Y-76842857D01*
X182542857Y-76871428D01*
X182400000Y-76871428D01*
X182285714Y-76842857D01*
X182228571Y-76814285D01*
X182200000Y-76785714D01*
X182171428Y-76728571D01*
X182228571Y-76300000D02*
X182200000Y-76271428D01*
X182171428Y-76214285D01*
X182171428Y-76071428D01*
X182200000Y-76014285D01*
X182228571Y-75985714D01*
X182285714Y-75957142D01*
X182342857Y-75957142D01*
X182428571Y-75985714D01*
X182771428Y-76328571D01*
X182771428Y-75957142D01*
%TO.C,C501*%
X182714285Y-74671428D02*
X182742857Y-74700000D01*
X182771428Y-74785714D01*
X182771428Y-74842857D01*
X182742857Y-74928571D01*
X182685714Y-74985714D01*
X182628571Y-75014285D01*
X182514285Y-75042857D01*
X182428571Y-75042857D01*
X182314285Y-75014285D01*
X182257142Y-74985714D01*
X182200000Y-74928571D01*
X182171428Y-74842857D01*
X182171428Y-74785714D01*
X182200000Y-74700000D01*
X182228571Y-74671428D01*
X182171428Y-74128571D02*
X182171428Y-74414285D01*
X182457142Y-74442857D01*
X182428571Y-74414285D01*
X182400000Y-74357142D01*
X182400000Y-74214285D01*
X182428571Y-74157142D01*
X182457142Y-74128571D01*
X182514285Y-74100000D01*
X182657142Y-74100000D01*
X182714285Y-74128571D01*
X182742857Y-74157142D01*
X182771428Y-74214285D01*
X182771428Y-74357142D01*
X182742857Y-74414285D01*
X182714285Y-74442857D01*
X182171428Y-73728571D02*
X182171428Y-73671428D01*
X182200000Y-73614285D01*
X182228571Y-73585714D01*
X182285714Y-73557142D01*
X182400000Y-73528571D01*
X182542857Y-73528571D01*
X182657142Y-73557142D01*
X182714285Y-73585714D01*
X182742857Y-73614285D01*
X182771428Y-73671428D01*
X182771428Y-73728571D01*
X182742857Y-73785714D01*
X182714285Y-73814285D01*
X182657142Y-73842857D01*
X182542857Y-73871428D01*
X182400000Y-73871428D01*
X182285714Y-73842857D01*
X182228571Y-73814285D01*
X182200000Y-73785714D01*
X182171428Y-73728571D01*
X182771428Y-72957142D02*
X182771428Y-73300000D01*
X182771428Y-73128571D02*
X182171428Y-73128571D01*
X182257142Y-73185714D01*
X182314285Y-73242857D01*
X182342857Y-73300000D01*
%TO.C,U001*%
X171452380Y-100214285D02*
X172261904Y-100214285D01*
X172357142Y-100166666D01*
X172404761Y-100119047D01*
X172452380Y-100023809D01*
X172452380Y-99833333D01*
X172404761Y-99738095D01*
X172357142Y-99690476D01*
X172261904Y-99642857D01*
X171452380Y-99642857D01*
X171452380Y-98976190D02*
X171452380Y-98880952D01*
X171500000Y-98785714D01*
X171547619Y-98738095D01*
X171642857Y-98690476D01*
X171833333Y-98642857D01*
X172071428Y-98642857D01*
X172261904Y-98690476D01*
X172357142Y-98738095D01*
X172404761Y-98785714D01*
X172452380Y-98880952D01*
X172452380Y-98976190D01*
X172404761Y-99071428D01*
X172357142Y-99119047D01*
X172261904Y-99166666D01*
X172071428Y-99214285D01*
X171833333Y-99214285D01*
X171642857Y-99166666D01*
X171547619Y-99119047D01*
X171500000Y-99071428D01*
X171452380Y-98976190D01*
X171452380Y-98023809D02*
X171452380Y-97928571D01*
X171500000Y-97833333D01*
X171547619Y-97785714D01*
X171642857Y-97738095D01*
X171833333Y-97690476D01*
X172071428Y-97690476D01*
X172261904Y-97738095D01*
X172357142Y-97785714D01*
X172404761Y-97833333D01*
X172452380Y-97928571D01*
X172452380Y-98023809D01*
X172404761Y-98119047D01*
X172357142Y-98166666D01*
X172261904Y-98214285D01*
X172071428Y-98261904D01*
X171833333Y-98261904D01*
X171642857Y-98214285D01*
X171547619Y-98166666D01*
X171500000Y-98119047D01*
X171452380Y-98023809D01*
X172452380Y-96738095D02*
X172452380Y-97309523D01*
X172452380Y-97023809D02*
X171452380Y-97023809D01*
X171595238Y-97119047D01*
X171690476Y-97214285D01*
X171738095Y-97309523D01*
%TO.C,J502*%
X134952380Y-75785714D02*
X135666666Y-75785714D01*
X135809523Y-75833333D01*
X135904761Y-75928571D01*
X135952380Y-76071428D01*
X135952380Y-76166666D01*
X134952380Y-74833333D02*
X134952380Y-75309523D01*
X135428571Y-75357142D01*
X135380952Y-75309523D01*
X135333333Y-75214285D01*
X135333333Y-74976190D01*
X135380952Y-74880952D01*
X135428571Y-74833333D01*
X135523809Y-74785714D01*
X135761904Y-74785714D01*
X135857142Y-74833333D01*
X135904761Y-74880952D01*
X135952380Y-74976190D01*
X135952380Y-75214285D01*
X135904761Y-75309523D01*
X135857142Y-75357142D01*
X134952380Y-74166666D02*
X134952380Y-74071428D01*
X135000000Y-73976190D01*
X135047619Y-73928571D01*
X135142857Y-73880952D01*
X135333333Y-73833333D01*
X135571428Y-73833333D01*
X135761904Y-73880952D01*
X135857142Y-73928571D01*
X135904761Y-73976190D01*
X135952380Y-74071428D01*
X135952380Y-74166666D01*
X135904761Y-74261904D01*
X135857142Y-74309523D01*
X135761904Y-74357142D01*
X135571428Y-74404761D01*
X135333333Y-74404761D01*
X135142857Y-74357142D01*
X135047619Y-74309523D01*
X135000000Y-74261904D01*
X134952380Y-74166666D01*
X135047619Y-73452380D02*
X135000000Y-73404761D01*
X134952380Y-73309523D01*
X134952380Y-73071428D01*
X135000000Y-72976190D01*
X135047619Y-72928571D01*
X135142857Y-72880952D01*
X135238095Y-72880952D01*
X135380952Y-72928571D01*
X135952380Y-73500000D01*
X135952380Y-72880952D01*
X131607142Y-68571428D02*
X131607142Y-67428571D01*
X131607142Y-81571428D02*
X131607142Y-80428571D01*
X132178571Y-81000000D02*
X131035714Y-81000000D01*
%TO.C,U101*%
X187285714Y-82602380D02*
X187285714Y-83411904D01*
X187333333Y-83507142D01*
X187380952Y-83554761D01*
X187476190Y-83602380D01*
X187666666Y-83602380D01*
X187761904Y-83554761D01*
X187809523Y-83507142D01*
X187857142Y-83411904D01*
X187857142Y-82602380D01*
X188857142Y-83602380D02*
X188285714Y-83602380D01*
X188571428Y-83602380D02*
X188571428Y-82602380D01*
X188476190Y-82745238D01*
X188380952Y-82840476D01*
X188285714Y-82888095D01*
X189476190Y-82602380D02*
X189571428Y-82602380D01*
X189666666Y-82650000D01*
X189714285Y-82697619D01*
X189761904Y-82792857D01*
X189809523Y-82983333D01*
X189809523Y-83221428D01*
X189761904Y-83411904D01*
X189714285Y-83507142D01*
X189666666Y-83554761D01*
X189571428Y-83602380D01*
X189476190Y-83602380D01*
X189380952Y-83554761D01*
X189333333Y-83507142D01*
X189285714Y-83411904D01*
X189238095Y-83221428D01*
X189238095Y-82983333D01*
X189285714Y-82792857D01*
X189333333Y-82697619D01*
X189380952Y-82650000D01*
X189476190Y-82602380D01*
X190761904Y-83602380D02*
X190190476Y-83602380D01*
X190476190Y-83602380D02*
X190476190Y-82602380D01*
X190380952Y-82745238D01*
X190285714Y-82840476D01*
X190190476Y-82888095D01*
%TO.C,R701*%
X165571428Y-115071428D02*
X165285714Y-115271428D01*
X165571428Y-115414285D02*
X164971428Y-115414285D01*
X164971428Y-115185714D01*
X165000000Y-115128571D01*
X165028571Y-115100000D01*
X165085714Y-115071428D01*
X165171428Y-115071428D01*
X165228571Y-115100000D01*
X165257142Y-115128571D01*
X165285714Y-115185714D01*
X165285714Y-115414285D01*
X164971428Y-114871428D02*
X164971428Y-114471428D01*
X165571428Y-114728571D01*
X164971428Y-114128571D02*
X164971428Y-114071428D01*
X165000000Y-114014285D01*
X165028571Y-113985714D01*
X165085714Y-113957142D01*
X165200000Y-113928571D01*
X165342857Y-113928571D01*
X165457142Y-113957142D01*
X165514285Y-113985714D01*
X165542857Y-114014285D01*
X165571428Y-114071428D01*
X165571428Y-114128571D01*
X165542857Y-114185714D01*
X165514285Y-114214285D01*
X165457142Y-114242857D01*
X165342857Y-114271428D01*
X165200000Y-114271428D01*
X165085714Y-114242857D01*
X165028571Y-114214285D01*
X165000000Y-114185714D01*
X164971428Y-114128571D01*
X165571428Y-113357142D02*
X165571428Y-113700000D01*
X165571428Y-113528571D02*
X164971428Y-113528571D01*
X165057142Y-113585714D01*
X165114285Y-113642857D01*
X165142857Y-113700000D01*
%TO.C,R601*%
X171771427Y-84883929D02*
X171485713Y-85083929D01*
X171771427Y-85226786D02*
X171171427Y-85226786D01*
X171171427Y-84998215D01*
X171199999Y-84941072D01*
X171228570Y-84912501D01*
X171285713Y-84883929D01*
X171371427Y-84883929D01*
X171428570Y-84912501D01*
X171457141Y-84941072D01*
X171485713Y-84998215D01*
X171485713Y-85226786D01*
X171171427Y-84369643D02*
X171171427Y-84483929D01*
X171199999Y-84541072D01*
X171228570Y-84569643D01*
X171314284Y-84626786D01*
X171428570Y-84655358D01*
X171657141Y-84655358D01*
X171714284Y-84626786D01*
X171742856Y-84598215D01*
X171771427Y-84541072D01*
X171771427Y-84426786D01*
X171742856Y-84369643D01*
X171714284Y-84341072D01*
X171657141Y-84312501D01*
X171514284Y-84312501D01*
X171457141Y-84341072D01*
X171428570Y-84369643D01*
X171399999Y-84426786D01*
X171399999Y-84541072D01*
X171428570Y-84598215D01*
X171457141Y-84626786D01*
X171514284Y-84655358D01*
X171171427Y-83941072D02*
X171171427Y-83883929D01*
X171199999Y-83826786D01*
X171228570Y-83798215D01*
X171285713Y-83769643D01*
X171399999Y-83741072D01*
X171542856Y-83741072D01*
X171657141Y-83769643D01*
X171714284Y-83798215D01*
X171742856Y-83826786D01*
X171771427Y-83883929D01*
X171771427Y-83941072D01*
X171742856Y-83998215D01*
X171714284Y-84026786D01*
X171657141Y-84055358D01*
X171542856Y-84083929D01*
X171399999Y-84083929D01*
X171285713Y-84055358D01*
X171228570Y-84026786D01*
X171199999Y-83998215D01*
X171171427Y-83941072D01*
X171771427Y-83169643D02*
X171771427Y-83512501D01*
X171771427Y-83341072D02*
X171171427Y-83341072D01*
X171257141Y-83398215D01*
X171314284Y-83455358D01*
X171342856Y-83512501D01*
%TO.C,R411*%
X143071428Y-84671428D02*
X142785714Y-84871428D01*
X143071428Y-85014285D02*
X142471428Y-85014285D01*
X142471428Y-84785714D01*
X142500000Y-84728571D01*
X142528571Y-84700000D01*
X142585714Y-84671428D01*
X142671428Y-84671428D01*
X142728571Y-84700000D01*
X142757142Y-84728571D01*
X142785714Y-84785714D01*
X142785714Y-85014285D01*
X142671428Y-84157142D02*
X143071428Y-84157142D01*
X142442857Y-84300000D02*
X142871428Y-84442857D01*
X142871428Y-84071428D01*
X143071428Y-83528571D02*
X143071428Y-83871428D01*
X143071428Y-83700000D02*
X142471428Y-83700000D01*
X142557142Y-83757142D01*
X142614285Y-83814285D01*
X142642857Y-83871428D01*
X143071428Y-82957142D02*
X143071428Y-83300000D01*
X143071428Y-83128571D02*
X142471428Y-83128571D01*
X142557142Y-83185714D01*
X142614285Y-83242857D01*
X142642857Y-83300000D01*
%TO.C,R401*%
X158171428Y-84671428D02*
X157885714Y-84871428D01*
X158171428Y-85014285D02*
X157571428Y-85014285D01*
X157571428Y-84785714D01*
X157600000Y-84728571D01*
X157628571Y-84700000D01*
X157685714Y-84671428D01*
X157771428Y-84671428D01*
X157828571Y-84700000D01*
X157857142Y-84728571D01*
X157885714Y-84785714D01*
X157885714Y-85014285D01*
X157771428Y-84157142D02*
X158171428Y-84157142D01*
X157542857Y-84300000D02*
X157971428Y-84442857D01*
X157971428Y-84071428D01*
X157571428Y-83728571D02*
X157571428Y-83671428D01*
X157600000Y-83614285D01*
X157628571Y-83585714D01*
X157685714Y-83557142D01*
X157800000Y-83528571D01*
X157942857Y-83528571D01*
X158057142Y-83557142D01*
X158114285Y-83585714D01*
X158142857Y-83614285D01*
X158171428Y-83671428D01*
X158171428Y-83728571D01*
X158142857Y-83785714D01*
X158114285Y-83814285D01*
X158057142Y-83842857D01*
X157942857Y-83871428D01*
X157800000Y-83871428D01*
X157685714Y-83842857D01*
X157628571Y-83814285D01*
X157600000Y-83785714D01*
X157571428Y-83728571D01*
X158171428Y-82957142D02*
X158171428Y-83300000D01*
X158171428Y-83128571D02*
X157571428Y-83128571D01*
X157657142Y-83185714D01*
X157714285Y-83242857D01*
X157742857Y-83300000D01*
%TO.C,R214*%
X153271428Y-76871428D02*
X152985714Y-77071428D01*
X153271428Y-77214285D02*
X152671428Y-77214285D01*
X152671428Y-76985714D01*
X152700000Y-76928571D01*
X152728571Y-76900000D01*
X152785714Y-76871428D01*
X152871428Y-76871428D01*
X152928571Y-76900000D01*
X152957142Y-76928571D01*
X152985714Y-76985714D01*
X152985714Y-77214285D01*
X152728571Y-76642857D02*
X152700000Y-76614285D01*
X152671428Y-76557142D01*
X152671428Y-76414285D01*
X152700000Y-76357142D01*
X152728571Y-76328571D01*
X152785714Y-76300000D01*
X152842857Y-76300000D01*
X152928571Y-76328571D01*
X153271428Y-76671428D01*
X153271428Y-76300000D01*
X153271428Y-75728571D02*
X153271428Y-76071428D01*
X153271428Y-75900000D02*
X152671428Y-75900000D01*
X152757142Y-75957142D01*
X152814285Y-76014285D01*
X152842857Y-76071428D01*
X152871428Y-75214285D02*
X153271428Y-75214285D01*
X152642857Y-75357142D02*
X153071428Y-75500000D01*
X153071428Y-75128571D01*
%TO.C,R213*%
X153271428Y-74471428D02*
X152985714Y-74671428D01*
X153271428Y-74814285D02*
X152671428Y-74814285D01*
X152671428Y-74585714D01*
X152700000Y-74528571D01*
X152728571Y-74500000D01*
X152785714Y-74471428D01*
X152871428Y-74471428D01*
X152928571Y-74500000D01*
X152957142Y-74528571D01*
X152985714Y-74585714D01*
X152985714Y-74814285D01*
X152728571Y-74242857D02*
X152700000Y-74214285D01*
X152671428Y-74157142D01*
X152671428Y-74014285D01*
X152700000Y-73957142D01*
X152728571Y-73928571D01*
X152785714Y-73900000D01*
X152842857Y-73900000D01*
X152928571Y-73928571D01*
X153271428Y-74271428D01*
X153271428Y-73900000D01*
X153271428Y-73328571D02*
X153271428Y-73671428D01*
X153271428Y-73500000D02*
X152671428Y-73500000D01*
X152757142Y-73557142D01*
X152814285Y-73614285D01*
X152842857Y-73671428D01*
X152671428Y-73128571D02*
X152671428Y-72757142D01*
X152900000Y-72957142D01*
X152900000Y-72871428D01*
X152928571Y-72814285D01*
X152957142Y-72785714D01*
X153014285Y-72757142D01*
X153157142Y-72757142D01*
X153214285Y-72785714D01*
X153242857Y-72814285D01*
X153271428Y-72871428D01*
X153271428Y-73042857D01*
X153242857Y-73100000D01*
X153214285Y-73128571D01*
%TO.C,R212*%
X152171428Y-84671428D02*
X151885714Y-84871428D01*
X152171428Y-85014285D02*
X151571428Y-85014285D01*
X151571428Y-84785714D01*
X151600000Y-84728571D01*
X151628571Y-84700000D01*
X151685714Y-84671428D01*
X151771428Y-84671428D01*
X151828571Y-84700000D01*
X151857142Y-84728571D01*
X151885714Y-84785714D01*
X151885714Y-85014285D01*
X151628571Y-84442857D02*
X151600000Y-84414285D01*
X151571428Y-84357142D01*
X151571428Y-84214285D01*
X151600000Y-84157142D01*
X151628571Y-84128571D01*
X151685714Y-84100000D01*
X151742857Y-84100000D01*
X151828571Y-84128571D01*
X152171428Y-84471428D01*
X152171428Y-84100000D01*
X152171428Y-83528571D02*
X152171428Y-83871428D01*
X152171428Y-83700000D02*
X151571428Y-83700000D01*
X151657142Y-83757142D01*
X151714285Y-83814285D01*
X151742857Y-83871428D01*
X151628571Y-83300000D02*
X151600000Y-83271428D01*
X151571428Y-83214285D01*
X151571428Y-83071428D01*
X151600000Y-83014285D01*
X151628571Y-82985714D01*
X151685714Y-82957142D01*
X151742857Y-82957142D01*
X151828571Y-82985714D01*
X152171428Y-83328571D01*
X152171428Y-82957142D01*
%TO.C,R211*%
X153271428Y-80171428D02*
X152985714Y-80371428D01*
X153271428Y-80514285D02*
X152671428Y-80514285D01*
X152671428Y-80285714D01*
X152700000Y-80228571D01*
X152728571Y-80200000D01*
X152785714Y-80171428D01*
X152871428Y-80171428D01*
X152928571Y-80200000D01*
X152957142Y-80228571D01*
X152985714Y-80285714D01*
X152985714Y-80514285D01*
X152728571Y-79942857D02*
X152700000Y-79914285D01*
X152671428Y-79857142D01*
X152671428Y-79714285D01*
X152700000Y-79657142D01*
X152728571Y-79628571D01*
X152785714Y-79600000D01*
X152842857Y-79600000D01*
X152928571Y-79628571D01*
X153271428Y-79971428D01*
X153271428Y-79600000D01*
X153271428Y-79028571D02*
X153271428Y-79371428D01*
X153271428Y-79200000D02*
X152671428Y-79200000D01*
X152757142Y-79257142D01*
X152814285Y-79314285D01*
X152842857Y-79371428D01*
X153271428Y-78457142D02*
X153271428Y-78800000D01*
X153271428Y-78628571D02*
X152671428Y-78628571D01*
X152757142Y-78685714D01*
X152814285Y-78742857D01*
X152842857Y-78800000D01*
%TO.C,R204*%
X168571428Y-76871428D02*
X168285714Y-77071428D01*
X168571428Y-77214285D02*
X167971428Y-77214285D01*
X167971428Y-76985714D01*
X168000000Y-76928571D01*
X168028571Y-76900000D01*
X168085714Y-76871428D01*
X168171428Y-76871428D01*
X168228571Y-76900000D01*
X168257142Y-76928571D01*
X168285714Y-76985714D01*
X168285714Y-77214285D01*
X168028571Y-76642857D02*
X168000000Y-76614285D01*
X167971428Y-76557142D01*
X167971428Y-76414285D01*
X168000000Y-76357142D01*
X168028571Y-76328571D01*
X168085714Y-76300000D01*
X168142857Y-76300000D01*
X168228571Y-76328571D01*
X168571428Y-76671428D01*
X168571428Y-76300000D01*
X167971428Y-75928571D02*
X167971428Y-75871428D01*
X168000000Y-75814285D01*
X168028571Y-75785714D01*
X168085714Y-75757142D01*
X168200000Y-75728571D01*
X168342857Y-75728571D01*
X168457142Y-75757142D01*
X168514285Y-75785714D01*
X168542857Y-75814285D01*
X168571428Y-75871428D01*
X168571428Y-75928571D01*
X168542857Y-75985714D01*
X168514285Y-76014285D01*
X168457142Y-76042857D01*
X168342857Y-76071428D01*
X168200000Y-76071428D01*
X168085714Y-76042857D01*
X168028571Y-76014285D01*
X168000000Y-75985714D01*
X167971428Y-75928571D01*
X168171428Y-75214285D02*
X168571428Y-75214285D01*
X167942857Y-75357142D02*
X168371428Y-75500000D01*
X168371428Y-75128571D01*
%TO.C,R203*%
X168571428Y-74471428D02*
X168285714Y-74671428D01*
X168571428Y-74814285D02*
X167971428Y-74814285D01*
X167971428Y-74585714D01*
X168000000Y-74528571D01*
X168028571Y-74500000D01*
X168085714Y-74471428D01*
X168171428Y-74471428D01*
X168228571Y-74500000D01*
X168257142Y-74528571D01*
X168285714Y-74585714D01*
X168285714Y-74814285D01*
X168028571Y-74242857D02*
X168000000Y-74214285D01*
X167971428Y-74157142D01*
X167971428Y-74014285D01*
X168000000Y-73957142D01*
X168028571Y-73928571D01*
X168085714Y-73900000D01*
X168142857Y-73900000D01*
X168228571Y-73928571D01*
X168571428Y-74271428D01*
X168571428Y-73900000D01*
X167971428Y-73528571D02*
X167971428Y-73471428D01*
X168000000Y-73414285D01*
X168028571Y-73385714D01*
X168085714Y-73357142D01*
X168200000Y-73328571D01*
X168342857Y-73328571D01*
X168457142Y-73357142D01*
X168514285Y-73385714D01*
X168542857Y-73414285D01*
X168571428Y-73471428D01*
X168571428Y-73528571D01*
X168542857Y-73585714D01*
X168514285Y-73614285D01*
X168457142Y-73642857D01*
X168342857Y-73671428D01*
X168200000Y-73671428D01*
X168085714Y-73642857D01*
X168028571Y-73614285D01*
X168000000Y-73585714D01*
X167971428Y-73528571D01*
X167971428Y-73128571D02*
X167971428Y-72757142D01*
X168200000Y-72957142D01*
X168200000Y-72871428D01*
X168228571Y-72814285D01*
X168257142Y-72785714D01*
X168314285Y-72757142D01*
X168457142Y-72757142D01*
X168514285Y-72785714D01*
X168542857Y-72814285D01*
X168571428Y-72871428D01*
X168571428Y-73042857D01*
X168542857Y-73100000D01*
X168514285Y-73128571D01*
%TO.C,R202*%
X167471428Y-84825069D02*
X167185714Y-85025069D01*
X167471428Y-85167926D02*
X166871428Y-85167926D01*
X166871428Y-84939355D01*
X166900000Y-84882212D01*
X166928571Y-84853641D01*
X166985714Y-84825069D01*
X167071428Y-84825069D01*
X167128571Y-84853641D01*
X167157142Y-84882212D01*
X167185714Y-84939355D01*
X167185714Y-85167926D01*
X166928571Y-84596498D02*
X166900000Y-84567926D01*
X166871428Y-84510783D01*
X166871428Y-84367926D01*
X166900000Y-84310783D01*
X166928571Y-84282212D01*
X166985714Y-84253641D01*
X167042857Y-84253641D01*
X167128571Y-84282212D01*
X167471428Y-84625069D01*
X167471428Y-84253641D01*
X166871428Y-83882212D02*
X166871428Y-83825069D01*
X166900000Y-83767926D01*
X166928571Y-83739355D01*
X166985714Y-83710783D01*
X167100000Y-83682212D01*
X167242857Y-83682212D01*
X167357142Y-83710783D01*
X167414285Y-83739355D01*
X167442857Y-83767926D01*
X167471428Y-83825069D01*
X167471428Y-83882212D01*
X167442857Y-83939355D01*
X167414285Y-83967926D01*
X167357142Y-83996498D01*
X167242857Y-84025069D01*
X167100000Y-84025069D01*
X166985714Y-83996498D01*
X166928571Y-83967926D01*
X166900000Y-83939355D01*
X166871428Y-83882212D01*
X166928571Y-83453641D02*
X166900000Y-83425069D01*
X166871428Y-83367926D01*
X166871428Y-83225069D01*
X166900000Y-83167926D01*
X166928571Y-83139355D01*
X166985714Y-83110783D01*
X167042857Y-83110783D01*
X167128571Y-83139355D01*
X167471428Y-83482212D01*
X167471428Y-83110783D01*
%TO.C,R201*%
X168571428Y-80171428D02*
X168285714Y-80371428D01*
X168571428Y-80514285D02*
X167971428Y-80514285D01*
X167971428Y-80285714D01*
X168000000Y-80228571D01*
X168028571Y-80200000D01*
X168085714Y-80171428D01*
X168171428Y-80171428D01*
X168228571Y-80200000D01*
X168257142Y-80228571D01*
X168285714Y-80285714D01*
X168285714Y-80514285D01*
X168028571Y-79942857D02*
X168000000Y-79914285D01*
X167971428Y-79857142D01*
X167971428Y-79714285D01*
X168000000Y-79657142D01*
X168028571Y-79628571D01*
X168085714Y-79600000D01*
X168142857Y-79600000D01*
X168228571Y-79628571D01*
X168571428Y-79971428D01*
X168571428Y-79600000D01*
X167971428Y-79228571D02*
X167971428Y-79171428D01*
X168000000Y-79114285D01*
X168028571Y-79085714D01*
X168085714Y-79057142D01*
X168200000Y-79028571D01*
X168342857Y-79028571D01*
X168457142Y-79057142D01*
X168514285Y-79085714D01*
X168542857Y-79114285D01*
X168571428Y-79171428D01*
X168571428Y-79228571D01*
X168542857Y-79285714D01*
X168514285Y-79314285D01*
X168457142Y-79342857D01*
X168342857Y-79371428D01*
X168200000Y-79371428D01*
X168085714Y-79342857D01*
X168028571Y-79314285D01*
X168000000Y-79285714D01*
X167971428Y-79228571D01*
X168571428Y-78457142D02*
X168571428Y-78800000D01*
X168571428Y-78628571D02*
X167971428Y-78628571D01*
X168057142Y-78685714D01*
X168114285Y-78742857D01*
X168142857Y-78800000D01*
%TO.C,R104*%
X195271428Y-87371428D02*
X194985714Y-87571428D01*
X195271428Y-87714285D02*
X194671428Y-87714285D01*
X194671428Y-87485714D01*
X194700000Y-87428571D01*
X194728571Y-87400000D01*
X194785714Y-87371428D01*
X194871428Y-87371428D01*
X194928571Y-87400000D01*
X194957142Y-87428571D01*
X194985714Y-87485714D01*
X194985714Y-87714285D01*
X195271428Y-86800000D02*
X195271428Y-87142857D01*
X195271428Y-86971428D02*
X194671428Y-86971428D01*
X194757142Y-87028571D01*
X194814285Y-87085714D01*
X194842857Y-87142857D01*
X194671428Y-86428571D02*
X194671428Y-86371428D01*
X194700000Y-86314285D01*
X194728571Y-86285714D01*
X194785714Y-86257142D01*
X194900000Y-86228571D01*
X195042857Y-86228571D01*
X195157142Y-86257142D01*
X195214285Y-86285714D01*
X195242857Y-86314285D01*
X195271428Y-86371428D01*
X195271428Y-86428571D01*
X195242857Y-86485714D01*
X195214285Y-86514285D01*
X195157142Y-86542857D01*
X195042857Y-86571428D01*
X194900000Y-86571428D01*
X194785714Y-86542857D01*
X194728571Y-86514285D01*
X194700000Y-86485714D01*
X194671428Y-86428571D01*
X194871428Y-85714285D02*
X195271428Y-85714285D01*
X194642857Y-85857142D02*
X195071428Y-86000000D01*
X195071428Y-85628571D01*
%TO.C,R103*%
X195271428Y-91971428D02*
X194985714Y-92171428D01*
X195271428Y-92314285D02*
X194671428Y-92314285D01*
X194671428Y-92085714D01*
X194700000Y-92028571D01*
X194728571Y-92000000D01*
X194785714Y-91971428D01*
X194871428Y-91971428D01*
X194928571Y-92000000D01*
X194957142Y-92028571D01*
X194985714Y-92085714D01*
X194985714Y-92314285D01*
X195271428Y-91400000D02*
X195271428Y-91742857D01*
X195271428Y-91571428D02*
X194671428Y-91571428D01*
X194757142Y-91628571D01*
X194814285Y-91685714D01*
X194842857Y-91742857D01*
X194671428Y-91028571D02*
X194671428Y-90971428D01*
X194700000Y-90914285D01*
X194728571Y-90885714D01*
X194785714Y-90857142D01*
X194900000Y-90828571D01*
X195042857Y-90828571D01*
X195157142Y-90857142D01*
X195214285Y-90885714D01*
X195242857Y-90914285D01*
X195271428Y-90971428D01*
X195271428Y-91028571D01*
X195242857Y-91085714D01*
X195214285Y-91114285D01*
X195157142Y-91142857D01*
X195042857Y-91171428D01*
X194900000Y-91171428D01*
X194785714Y-91142857D01*
X194728571Y-91114285D01*
X194700000Y-91085714D01*
X194671428Y-91028571D01*
X194671428Y-90628571D02*
X194671428Y-90257142D01*
X194900000Y-90457142D01*
X194900000Y-90371428D01*
X194928571Y-90314285D01*
X194957142Y-90285714D01*
X195014285Y-90257142D01*
X195157142Y-90257142D01*
X195214285Y-90285714D01*
X195242857Y-90314285D01*
X195271428Y-90371428D01*
X195271428Y-90542857D01*
X195242857Y-90600000D01*
X195214285Y-90628571D01*
%TO.C,R102*%
X195271428Y-89671428D02*
X194985714Y-89871428D01*
X195271428Y-90014285D02*
X194671428Y-90014285D01*
X194671428Y-89785714D01*
X194700000Y-89728571D01*
X194728571Y-89700000D01*
X194785714Y-89671428D01*
X194871428Y-89671428D01*
X194928571Y-89700000D01*
X194957142Y-89728571D01*
X194985714Y-89785714D01*
X194985714Y-90014285D01*
X195271428Y-89100000D02*
X195271428Y-89442857D01*
X195271428Y-89271428D02*
X194671428Y-89271428D01*
X194757142Y-89328571D01*
X194814285Y-89385714D01*
X194842857Y-89442857D01*
X194671428Y-88728571D02*
X194671428Y-88671428D01*
X194700000Y-88614285D01*
X194728571Y-88585714D01*
X194785714Y-88557142D01*
X194900000Y-88528571D01*
X195042857Y-88528571D01*
X195157142Y-88557142D01*
X195214285Y-88585714D01*
X195242857Y-88614285D01*
X195271428Y-88671428D01*
X195271428Y-88728571D01*
X195242857Y-88785714D01*
X195214285Y-88814285D01*
X195157142Y-88842857D01*
X195042857Y-88871428D01*
X194900000Y-88871428D01*
X194785714Y-88842857D01*
X194728571Y-88814285D01*
X194700000Y-88785714D01*
X194671428Y-88728571D01*
X194728571Y-88300000D02*
X194700000Y-88271428D01*
X194671428Y-88214285D01*
X194671428Y-88071428D01*
X194700000Y-88014285D01*
X194728571Y-87985714D01*
X194785714Y-87957142D01*
X194842857Y-87957142D01*
X194928571Y-87985714D01*
X195271428Y-88328571D01*
X195271428Y-87957142D01*
%TO.C,R101*%
X179371428Y-90471428D02*
X179085714Y-90671428D01*
X179371428Y-90814285D02*
X178771428Y-90814285D01*
X178771428Y-90585714D01*
X178800000Y-90528571D01*
X178828571Y-90500000D01*
X178885714Y-90471428D01*
X178971428Y-90471428D01*
X179028571Y-90500000D01*
X179057142Y-90528571D01*
X179085714Y-90585714D01*
X179085714Y-90814285D01*
X179371428Y-89900000D02*
X179371428Y-90242857D01*
X179371428Y-90071428D02*
X178771428Y-90071428D01*
X178857142Y-90128571D01*
X178914285Y-90185714D01*
X178942857Y-90242857D01*
X178771428Y-89528571D02*
X178771428Y-89471428D01*
X178800000Y-89414285D01*
X178828571Y-89385714D01*
X178885714Y-89357142D01*
X179000000Y-89328571D01*
X179142857Y-89328571D01*
X179257142Y-89357142D01*
X179314285Y-89385714D01*
X179342857Y-89414285D01*
X179371428Y-89471428D01*
X179371428Y-89528571D01*
X179342857Y-89585714D01*
X179314285Y-89614285D01*
X179257142Y-89642857D01*
X179142857Y-89671428D01*
X179000000Y-89671428D01*
X178885714Y-89642857D01*
X178828571Y-89614285D01*
X178800000Y-89585714D01*
X178771428Y-89528571D01*
X179371428Y-88757142D02*
X179371428Y-89100000D01*
X179371428Y-88928571D02*
X178771428Y-88928571D01*
X178857142Y-88985714D01*
X178914285Y-89042857D01*
X178942857Y-89100000D01*
%TO.C,PS101*%
X184675833Y-109309880D02*
X184675833Y-108309880D01*
X185056785Y-108309880D01*
X185152023Y-108357500D01*
X185199642Y-108405119D01*
X185247261Y-108500357D01*
X185247261Y-108643214D01*
X185199642Y-108738452D01*
X185152023Y-108786071D01*
X185056785Y-108833690D01*
X184675833Y-108833690D01*
X185628214Y-109262261D02*
X185771071Y-109309880D01*
X186009166Y-109309880D01*
X186104404Y-109262261D01*
X186152023Y-109214642D01*
X186199642Y-109119404D01*
X186199642Y-109024166D01*
X186152023Y-108928928D01*
X186104404Y-108881309D01*
X186009166Y-108833690D01*
X185818690Y-108786071D01*
X185723452Y-108738452D01*
X185675833Y-108690833D01*
X185628214Y-108595595D01*
X185628214Y-108500357D01*
X185675833Y-108405119D01*
X185723452Y-108357500D01*
X185818690Y-108309880D01*
X186056785Y-108309880D01*
X186199642Y-108357500D01*
X187152023Y-109309880D02*
X186580595Y-109309880D01*
X186866309Y-109309880D02*
X186866309Y-108309880D01*
X186771071Y-108452738D01*
X186675833Y-108547976D01*
X186580595Y-108595595D01*
X187771071Y-108309880D02*
X187866309Y-108309880D01*
X187961547Y-108357500D01*
X188009166Y-108405119D01*
X188056785Y-108500357D01*
X188104404Y-108690833D01*
X188104404Y-108928928D01*
X188056785Y-109119404D01*
X188009166Y-109214642D01*
X187961547Y-109262261D01*
X187866309Y-109309880D01*
X187771071Y-109309880D01*
X187675833Y-109262261D01*
X187628214Y-109214642D01*
X187580595Y-109119404D01*
X187532976Y-108928928D01*
X187532976Y-108690833D01*
X187580595Y-108500357D01*
X187628214Y-108405119D01*
X187675833Y-108357500D01*
X187771071Y-108309880D01*
X189056785Y-109309880D02*
X188485357Y-109309880D01*
X188771071Y-109309880D02*
X188771071Y-108309880D01*
X188675833Y-108452738D01*
X188580595Y-108547976D01*
X188485357Y-108595595D01*
%TO.C,J103*%
X197552380Y-90285714D02*
X198266666Y-90285714D01*
X198409523Y-90333333D01*
X198504761Y-90428571D01*
X198552380Y-90571428D01*
X198552380Y-90666666D01*
X198552380Y-89285714D02*
X198552380Y-89857142D01*
X198552380Y-89571428D02*
X197552380Y-89571428D01*
X197695238Y-89666666D01*
X197790476Y-89761904D01*
X197838095Y-89857142D01*
X197552380Y-88666666D02*
X197552380Y-88571428D01*
X197600000Y-88476190D01*
X197647619Y-88428571D01*
X197742857Y-88380952D01*
X197933333Y-88333333D01*
X198171428Y-88333333D01*
X198361904Y-88380952D01*
X198457142Y-88428571D01*
X198504761Y-88476190D01*
X198552380Y-88571428D01*
X198552380Y-88666666D01*
X198504761Y-88761904D01*
X198457142Y-88809523D01*
X198361904Y-88857142D01*
X198171428Y-88904761D01*
X197933333Y-88904761D01*
X197742857Y-88857142D01*
X197647619Y-88809523D01*
X197600000Y-88761904D01*
X197552380Y-88666666D01*
X197552380Y-88000000D02*
X197552380Y-87380952D01*
X197933333Y-87714285D01*
X197933333Y-87571428D01*
X197980952Y-87476190D01*
X198028571Y-87428571D01*
X198123809Y-87380952D01*
X198361904Y-87380952D01*
X198457142Y-87428571D01*
X198504761Y-87476190D01*
X198552380Y-87571428D01*
X198552380Y-87857142D01*
X198504761Y-87952380D01*
X198457142Y-88000000D01*
%TO.C,J102*%
X192062380Y-74135714D02*
X192776666Y-74135714D01*
X192919523Y-74183333D01*
X193014761Y-74278571D01*
X193062380Y-74421428D01*
X193062380Y-74516666D01*
X193062380Y-73135714D02*
X193062380Y-73707142D01*
X193062380Y-73421428D02*
X192062380Y-73421428D01*
X192205238Y-73516666D01*
X192300476Y-73611904D01*
X192348095Y-73707142D01*
X192062380Y-72516666D02*
X192062380Y-72421428D01*
X192110000Y-72326190D01*
X192157619Y-72278571D01*
X192252857Y-72230952D01*
X192443333Y-72183333D01*
X192681428Y-72183333D01*
X192871904Y-72230952D01*
X192967142Y-72278571D01*
X193014761Y-72326190D01*
X193062380Y-72421428D01*
X193062380Y-72516666D01*
X193014761Y-72611904D01*
X192967142Y-72659523D01*
X192871904Y-72707142D01*
X192681428Y-72754761D01*
X192443333Y-72754761D01*
X192252857Y-72707142D01*
X192157619Y-72659523D01*
X192110000Y-72611904D01*
X192062380Y-72516666D01*
X192157619Y-71802380D02*
X192110000Y-71754761D01*
X192062380Y-71659523D01*
X192062380Y-71421428D01*
X192110000Y-71326190D01*
X192157619Y-71278571D01*
X192252857Y-71230952D01*
X192348095Y-71230952D01*
X192490952Y-71278571D01*
X193062380Y-71850000D01*
X193062380Y-71230952D01*
%TO.C,J101*%
X191952380Y-106285714D02*
X192666666Y-106285714D01*
X192809523Y-106333333D01*
X192904761Y-106428571D01*
X192952380Y-106571428D01*
X192952380Y-106666666D01*
X192952380Y-105285714D02*
X192952380Y-105857142D01*
X192952380Y-105571428D02*
X191952380Y-105571428D01*
X192095238Y-105666666D01*
X192190476Y-105761904D01*
X192238095Y-105857142D01*
X191952380Y-104666666D02*
X191952380Y-104571428D01*
X192000000Y-104476190D01*
X192047619Y-104428571D01*
X192142857Y-104380952D01*
X192333333Y-104333333D01*
X192571428Y-104333333D01*
X192761904Y-104380952D01*
X192857142Y-104428571D01*
X192904761Y-104476190D01*
X192952380Y-104571428D01*
X192952380Y-104666666D01*
X192904761Y-104761904D01*
X192857142Y-104809523D01*
X192761904Y-104857142D01*
X192571428Y-104904761D01*
X192333333Y-104904761D01*
X192142857Y-104857142D01*
X192047619Y-104809523D01*
X192000000Y-104761904D01*
X191952380Y-104666666D01*
X192952380Y-103380952D02*
X192952380Y-103952380D01*
X192952380Y-103666666D02*
X191952380Y-103666666D01*
X192095238Y-103761904D01*
X192190476Y-103857142D01*
X192238095Y-103952380D01*
%TO.C,J001*%
X142714285Y-111952380D02*
X142714285Y-112666666D01*
X142666666Y-112809523D01*
X142571428Y-112904761D01*
X142428571Y-112952380D01*
X142333333Y-112952380D01*
X143380952Y-111952380D02*
X143476190Y-111952380D01*
X143571428Y-112000000D01*
X143619047Y-112047619D01*
X143666666Y-112142857D01*
X143714285Y-112333333D01*
X143714285Y-112571428D01*
X143666666Y-112761904D01*
X143619047Y-112857142D01*
X143571428Y-112904761D01*
X143476190Y-112952380D01*
X143380952Y-112952380D01*
X143285714Y-112904761D01*
X143238095Y-112857142D01*
X143190476Y-112761904D01*
X143142857Y-112571428D01*
X143142857Y-112333333D01*
X143190476Y-112142857D01*
X143238095Y-112047619D01*
X143285714Y-112000000D01*
X143380952Y-111952380D01*
X144333333Y-111952380D02*
X144428571Y-111952380D01*
X144523809Y-112000000D01*
X144571428Y-112047619D01*
X144619047Y-112142857D01*
X144666666Y-112333333D01*
X144666666Y-112571428D01*
X144619047Y-112761904D01*
X144571428Y-112857142D01*
X144523809Y-112904761D01*
X144428571Y-112952380D01*
X144333333Y-112952380D01*
X144238095Y-112904761D01*
X144190476Y-112857142D01*
X144142857Y-112761904D01*
X144095238Y-112571428D01*
X144095238Y-112333333D01*
X144142857Y-112142857D01*
X144190476Y-112047619D01*
X144238095Y-112000000D01*
X144333333Y-111952380D01*
X145619047Y-112952380D02*
X145047619Y-112952380D01*
X145333333Y-112952380D02*
X145333333Y-111952380D01*
X145238095Y-112095238D01*
X145142857Y-112190476D01*
X145047619Y-112238095D01*
%TO.C,D601*%
X175771428Y-85014285D02*
X175171428Y-85014285D01*
X175171428Y-84871428D01*
X175200000Y-84785714D01*
X175257142Y-84728571D01*
X175314285Y-84700000D01*
X175428571Y-84671428D01*
X175514285Y-84671428D01*
X175628571Y-84700000D01*
X175685714Y-84728571D01*
X175742857Y-84785714D01*
X175771428Y-84871428D01*
X175771428Y-85014285D01*
X175171428Y-84157142D02*
X175171428Y-84271428D01*
X175200000Y-84328571D01*
X175228571Y-84357142D01*
X175314285Y-84414285D01*
X175428571Y-84442857D01*
X175657142Y-84442857D01*
X175714285Y-84414285D01*
X175742857Y-84385714D01*
X175771428Y-84328571D01*
X175771428Y-84214285D01*
X175742857Y-84157142D01*
X175714285Y-84128571D01*
X175657142Y-84100000D01*
X175514285Y-84100000D01*
X175457142Y-84128571D01*
X175428571Y-84157142D01*
X175400000Y-84214285D01*
X175400000Y-84328571D01*
X175428571Y-84385714D01*
X175457142Y-84414285D01*
X175514285Y-84442857D01*
X175171428Y-83728571D02*
X175171428Y-83671428D01*
X175200000Y-83614285D01*
X175228571Y-83585714D01*
X175285714Y-83557142D01*
X175400000Y-83528571D01*
X175542857Y-83528571D01*
X175657142Y-83557142D01*
X175714285Y-83585714D01*
X175742857Y-83614285D01*
X175771428Y-83671428D01*
X175771428Y-83728571D01*
X175742857Y-83785714D01*
X175714285Y-83814285D01*
X175657142Y-83842857D01*
X175542857Y-83871428D01*
X175400000Y-83871428D01*
X175285714Y-83842857D01*
X175228571Y-83814285D01*
X175200000Y-83785714D01*
X175171428Y-83728571D01*
X175771428Y-82957142D02*
X175771428Y-83300000D01*
X175771428Y-83128571D02*
X175171428Y-83128571D01*
X175257142Y-83185714D01*
X175314285Y-83242857D01*
X175342857Y-83300000D01*
%TO.C,D411*%
X139471428Y-85014285D02*
X138871428Y-85014285D01*
X138871428Y-84871428D01*
X138900000Y-84785714D01*
X138957142Y-84728571D01*
X139014285Y-84700000D01*
X139128571Y-84671428D01*
X139214285Y-84671428D01*
X139328571Y-84700000D01*
X139385714Y-84728571D01*
X139442857Y-84785714D01*
X139471428Y-84871428D01*
X139471428Y-85014285D01*
X139071428Y-84157142D02*
X139471428Y-84157142D01*
X138842857Y-84300000D02*
X139271428Y-84442857D01*
X139271428Y-84071428D01*
X139471428Y-83528571D02*
X139471428Y-83871428D01*
X139471428Y-83700000D02*
X138871428Y-83700000D01*
X138957142Y-83757142D01*
X139014285Y-83814285D01*
X139042857Y-83871428D01*
X139471428Y-82957142D02*
X139471428Y-83300000D01*
X139471428Y-83128571D02*
X138871428Y-83128571D01*
X138957142Y-83185714D01*
X139014285Y-83242857D01*
X139042857Y-83300000D01*
%TO.C,D401*%
X154771428Y-85014285D02*
X154171428Y-85014285D01*
X154171428Y-84871428D01*
X154200000Y-84785714D01*
X154257142Y-84728571D01*
X154314285Y-84700000D01*
X154428571Y-84671428D01*
X154514285Y-84671428D01*
X154628571Y-84700000D01*
X154685714Y-84728571D01*
X154742857Y-84785714D01*
X154771428Y-84871428D01*
X154771428Y-85014285D01*
X154371428Y-84157142D02*
X154771428Y-84157142D01*
X154142857Y-84300000D02*
X154571428Y-84442857D01*
X154571428Y-84071428D01*
X154171428Y-83728571D02*
X154171428Y-83671428D01*
X154200000Y-83614285D01*
X154228571Y-83585714D01*
X154285714Y-83557142D01*
X154400000Y-83528571D01*
X154542857Y-83528571D01*
X154657142Y-83557142D01*
X154714285Y-83585714D01*
X154742857Y-83614285D01*
X154771428Y-83671428D01*
X154771428Y-83728571D01*
X154742857Y-83785714D01*
X154714285Y-83814285D01*
X154657142Y-83842857D01*
X154542857Y-83871428D01*
X154400000Y-83871428D01*
X154285714Y-83842857D01*
X154228571Y-83814285D01*
X154200000Y-83785714D01*
X154171428Y-83728571D01*
X154771428Y-82957142D02*
X154771428Y-83300000D01*
X154771428Y-83128571D02*
X154171428Y-83128571D01*
X154257142Y-83185714D01*
X154314285Y-83242857D01*
X154342857Y-83300000D01*
%TO.C,D301*%
X155809523Y-112452380D02*
X155809523Y-111452380D01*
X156047619Y-111452380D01*
X156190476Y-111500000D01*
X156285714Y-111595238D01*
X156333333Y-111690476D01*
X156380952Y-111880952D01*
X156380952Y-112023809D01*
X156333333Y-112214285D01*
X156285714Y-112309523D01*
X156190476Y-112404761D01*
X156047619Y-112452380D01*
X155809523Y-112452380D01*
X156714285Y-111452380D02*
X157333333Y-111452380D01*
X157000000Y-111833333D01*
X157142857Y-111833333D01*
X157238095Y-111880952D01*
X157285714Y-111928571D01*
X157333333Y-112023809D01*
X157333333Y-112261904D01*
X157285714Y-112357142D01*
X157238095Y-112404761D01*
X157142857Y-112452380D01*
X156857142Y-112452380D01*
X156761904Y-112404761D01*
X156714285Y-112357142D01*
X157952380Y-111452380D02*
X158047619Y-111452380D01*
X158142857Y-111500000D01*
X158190476Y-111547619D01*
X158238095Y-111642857D01*
X158285714Y-111833333D01*
X158285714Y-112071428D01*
X158238095Y-112261904D01*
X158190476Y-112357142D01*
X158142857Y-112404761D01*
X158047619Y-112452380D01*
X157952380Y-112452380D01*
X157857142Y-112404761D01*
X157809523Y-112357142D01*
X157761904Y-112261904D01*
X157714285Y-112071428D01*
X157714285Y-111833333D01*
X157761904Y-111642857D01*
X157809523Y-111547619D01*
X157857142Y-111500000D01*
X157952380Y-111452380D01*
X159238095Y-112452380D02*
X158666666Y-112452380D01*
X158952380Y-112452380D02*
X158952380Y-111452380D01*
X158857142Y-111595238D01*
X158761904Y-111690476D01*
X158666666Y-111738095D01*
%TO.C,D211*%
X148771428Y-85014285D02*
X148171428Y-85014285D01*
X148171428Y-84871428D01*
X148200000Y-84785714D01*
X148257142Y-84728571D01*
X148314285Y-84700000D01*
X148428571Y-84671428D01*
X148514285Y-84671428D01*
X148628571Y-84700000D01*
X148685714Y-84728571D01*
X148742857Y-84785714D01*
X148771428Y-84871428D01*
X148771428Y-85014285D01*
X148228571Y-84442857D02*
X148200000Y-84414285D01*
X148171428Y-84357142D01*
X148171428Y-84214285D01*
X148200000Y-84157142D01*
X148228571Y-84128571D01*
X148285714Y-84100000D01*
X148342857Y-84100000D01*
X148428571Y-84128571D01*
X148771428Y-84471428D01*
X148771428Y-84100000D01*
X148771428Y-83528571D02*
X148771428Y-83871428D01*
X148771428Y-83700000D02*
X148171428Y-83700000D01*
X148257142Y-83757142D01*
X148314285Y-83814285D01*
X148342857Y-83871428D01*
X148771428Y-82957142D02*
X148771428Y-83300000D01*
X148771428Y-83128571D02*
X148171428Y-83128571D01*
X148257142Y-83185714D01*
X148314285Y-83242857D01*
X148342857Y-83300000D01*
%TO.C,D201*%
X164071428Y-85014285D02*
X163471428Y-85014285D01*
X163471428Y-84871428D01*
X163500000Y-84785714D01*
X163557142Y-84728571D01*
X163614285Y-84700000D01*
X163728571Y-84671428D01*
X163814285Y-84671428D01*
X163928571Y-84700000D01*
X163985714Y-84728571D01*
X164042857Y-84785714D01*
X164071428Y-84871428D01*
X164071428Y-85014285D01*
X163528571Y-84442857D02*
X163500000Y-84414285D01*
X163471428Y-84357142D01*
X163471428Y-84214285D01*
X163500000Y-84157142D01*
X163528571Y-84128571D01*
X163585714Y-84100000D01*
X163642857Y-84100000D01*
X163728571Y-84128571D01*
X164071428Y-84471428D01*
X164071428Y-84100000D01*
X163471428Y-83728571D02*
X163471428Y-83671428D01*
X163500000Y-83614285D01*
X163528571Y-83585714D01*
X163585714Y-83557142D01*
X163700000Y-83528571D01*
X163842857Y-83528571D01*
X163957142Y-83557142D01*
X164014285Y-83585714D01*
X164042857Y-83614285D01*
X164071428Y-83671428D01*
X164071428Y-83728571D01*
X164042857Y-83785714D01*
X164014285Y-83814285D01*
X163957142Y-83842857D01*
X163842857Y-83871428D01*
X163700000Y-83871428D01*
X163585714Y-83842857D01*
X163528571Y-83814285D01*
X163500000Y-83785714D01*
X163471428Y-83728571D01*
X164071428Y-82957142D02*
X164071428Y-83300000D01*
X164071428Y-83128571D02*
X163471428Y-83128571D01*
X163557142Y-83185714D01*
X163614285Y-83242857D01*
X163642857Y-83300000D01*
%TO.C,C301*%
X162914285Y-117171428D02*
X162942857Y-117200000D01*
X162971428Y-117285714D01*
X162971428Y-117342857D01*
X162942857Y-117428571D01*
X162885714Y-117485714D01*
X162828571Y-117514285D01*
X162714285Y-117542857D01*
X162628571Y-117542857D01*
X162514285Y-117514285D01*
X162457142Y-117485714D01*
X162400000Y-117428571D01*
X162371428Y-117342857D01*
X162371428Y-117285714D01*
X162400000Y-117200000D01*
X162428571Y-117171428D01*
X162371428Y-116971428D02*
X162371428Y-116600000D01*
X162600000Y-116800000D01*
X162600000Y-116714285D01*
X162628571Y-116657142D01*
X162657142Y-116628571D01*
X162714285Y-116600000D01*
X162857142Y-116600000D01*
X162914285Y-116628571D01*
X162942857Y-116657142D01*
X162971428Y-116714285D01*
X162971428Y-116885714D01*
X162942857Y-116942857D01*
X162914285Y-116971428D01*
X162371428Y-116228571D02*
X162371428Y-116171428D01*
X162400000Y-116114285D01*
X162428571Y-116085714D01*
X162485714Y-116057142D01*
X162600000Y-116028571D01*
X162742857Y-116028571D01*
X162857142Y-116057142D01*
X162914285Y-116085714D01*
X162942857Y-116114285D01*
X162971428Y-116171428D01*
X162971428Y-116228571D01*
X162942857Y-116285714D01*
X162914285Y-116314285D01*
X162857142Y-116342857D01*
X162742857Y-116371428D01*
X162600000Y-116371428D01*
X162485714Y-116342857D01*
X162428571Y-116314285D01*
X162400000Y-116285714D01*
X162371428Y-116228571D01*
X162971428Y-115457142D02*
X162971428Y-115800000D01*
X162971428Y-115628571D02*
X162371428Y-115628571D01*
X162457142Y-115685714D01*
X162514285Y-115742857D01*
X162542857Y-115800000D01*
%TO.C,C102*%
X194214285Y-83271428D02*
X194242857Y-83300000D01*
X194271428Y-83385714D01*
X194271428Y-83442857D01*
X194242857Y-83528571D01*
X194185714Y-83585714D01*
X194128571Y-83614285D01*
X194014285Y-83642857D01*
X193928571Y-83642857D01*
X193814285Y-83614285D01*
X193757142Y-83585714D01*
X193700000Y-83528571D01*
X193671428Y-83442857D01*
X193671428Y-83385714D01*
X193700000Y-83300000D01*
X193728571Y-83271428D01*
X194271428Y-82700000D02*
X194271428Y-83042857D01*
X194271428Y-82871428D02*
X193671428Y-82871428D01*
X193757142Y-82928571D01*
X193814285Y-82985714D01*
X193842857Y-83042857D01*
X193671428Y-82328571D02*
X193671428Y-82271428D01*
X193700000Y-82214285D01*
X193728571Y-82185714D01*
X193785714Y-82157142D01*
X193900000Y-82128571D01*
X194042857Y-82128571D01*
X194157142Y-82157142D01*
X194214285Y-82185714D01*
X194242857Y-82214285D01*
X194271428Y-82271428D01*
X194271428Y-82328571D01*
X194242857Y-82385714D01*
X194214285Y-82414285D01*
X194157142Y-82442857D01*
X194042857Y-82471428D01*
X193900000Y-82471428D01*
X193785714Y-82442857D01*
X193728571Y-82414285D01*
X193700000Y-82385714D01*
X193671428Y-82328571D01*
X193728571Y-81900000D02*
X193700000Y-81871428D01*
X193671428Y-81814285D01*
X193671428Y-81671428D01*
X193700000Y-81614285D01*
X193728571Y-81585714D01*
X193785714Y-81557142D01*
X193842857Y-81557142D01*
X193928571Y-81585714D01*
X194271428Y-81928571D01*
X194271428Y-81557142D01*
%TO.C,C101*%
X179314285Y-85421428D02*
X179342857Y-85450000D01*
X179371428Y-85535714D01*
X179371428Y-85592857D01*
X179342857Y-85678571D01*
X179285714Y-85735714D01*
X179228571Y-85764285D01*
X179114285Y-85792857D01*
X179028571Y-85792857D01*
X178914285Y-85764285D01*
X178857142Y-85735714D01*
X178800000Y-85678571D01*
X178771428Y-85592857D01*
X178771428Y-85535714D01*
X178800000Y-85450000D01*
X178828571Y-85421428D01*
X179371428Y-84850000D02*
X179371428Y-85192857D01*
X179371428Y-85021428D02*
X178771428Y-85021428D01*
X178857142Y-85078571D01*
X178914285Y-85135714D01*
X178942857Y-85192857D01*
X178771428Y-84478571D02*
X178771428Y-84421428D01*
X178800000Y-84364285D01*
X178828571Y-84335714D01*
X178885714Y-84307142D01*
X179000000Y-84278571D01*
X179142857Y-84278571D01*
X179257142Y-84307142D01*
X179314285Y-84335714D01*
X179342857Y-84364285D01*
X179371428Y-84421428D01*
X179371428Y-84478571D01*
X179342857Y-84535714D01*
X179314285Y-84564285D01*
X179257142Y-84592857D01*
X179142857Y-84621428D01*
X179000000Y-84621428D01*
X178885714Y-84592857D01*
X178828571Y-84564285D01*
X178800000Y-84535714D01*
X178771428Y-84478571D01*
X179371428Y-83707142D02*
X179371428Y-84050000D01*
X179371428Y-83878571D02*
X178771428Y-83878571D01*
X178857142Y-83935714D01*
X178914285Y-83992857D01*
X178942857Y-84050000D01*
D14*
%TO.C,U501*%
X179450000Y-75110000D02*
X179450000Y-77890000D01*
X174550000Y-75110000D02*
X174550000Y-77890000D01*
D15*
X179005000Y-72215000D02*
G75*
G03*
X179005000Y-72215000I-100000J0D01*
G01*
%TO.C,S701*%
X177150000Y-115162500D02*
X177150000Y-115162500D01*
X176200000Y-118312500D02*
X168800000Y-118312500D01*
X168800000Y-118312500D02*
X168800000Y-113962500D01*
X177150000Y-115162500D02*
X177150000Y-115162500D01*
X176200000Y-114012500D02*
X176200000Y-118312500D01*
X168800000Y-114012500D02*
X176200000Y-114012500D01*
X177250000Y-115162500D02*
X177250000Y-115162500D01*
X177150000Y-115162500D02*
G75*
G03*
X177250000Y-115162500I50000J0D01*
G01*
X177150000Y-115162500D02*
G75*
G03*
X177250000Y-115162500I50000J0D01*
G01*
X177250000Y-115162500D02*
G75*
G03*
X177150000Y-115162500I-50000J0D01*
G01*
%TO.C,Q501*%
X182550000Y-79350000D02*
X185450000Y-79350000D01*
X182465000Y-81100000D02*
X182465000Y-80000000D01*
X182550000Y-79650000D02*
X182550000Y-79350000D01*
X185450000Y-79350000D02*
X185450000Y-79650000D01*
X185450000Y-79650000D02*
X182550000Y-79650000D01*
D16*
%TO.C,Q211*%
X145800000Y-80987500D02*
X145800000Y-80987500D01*
X145800000Y-81087500D02*
X145800000Y-81087500D01*
X145800000Y-80987500D02*
G75*
G03*
X145800000Y-81087500I0J-50000D01*
G01*
X145800000Y-81087500D02*
G75*
G03*
X145800000Y-80987500I0J50000D01*
G01*
%TO.C,Q201*%
X161060000Y-81000000D02*
X161060000Y-81000000D01*
X161060000Y-81100000D02*
X161060000Y-81100000D01*
X161060000Y-81000000D02*
G75*
G03*
X161060000Y-81100000I0J-50000D01*
G01*
X161060000Y-81100000D02*
G75*
G03*
X161060000Y-81000000I0J50000D01*
G01*
%TO.C,J501*%
X183110000Y-58700000D02*
X183110000Y-71300000D01*
X183110000Y-71300000D02*
X167870000Y-71300000D01*
X167870000Y-58700000D02*
X183110000Y-58700000D01*
X167870000Y-71300000D02*
X167870000Y-58700000D01*
%TO.C,J202*%
X152620000Y-58700000D02*
X152620000Y-71300000D01*
X152620000Y-71300000D02*
X137380000Y-71300000D01*
X137380000Y-58700000D02*
X152620000Y-58700000D01*
X137380000Y-71300000D02*
X137380000Y-58700000D01*
%TO.C,J201*%
X167870000Y-58700000D02*
X167870000Y-71300000D01*
X167870000Y-71300000D02*
X152630000Y-71300000D01*
X152630000Y-58700000D02*
X167870000Y-58700000D01*
X152630000Y-71300000D02*
X152630000Y-58700000D01*
D15*
%TO.C,F211*%
X143670000Y-76500000D02*
X141330000Y-76500000D01*
%TO.C,F201*%
X158670000Y-76500000D02*
X156330000Y-76500000D01*
D17*
%TO.C,J503*%
X186170000Y-79095000D02*
X188830000Y-79095000D01*
X186170000Y-76495000D02*
X186170000Y-79095000D01*
X188830000Y-76495000D02*
X188830000Y-79095000D01*
X186170000Y-76495000D02*
X188830000Y-76495000D01*
X186170000Y-75225000D02*
X186170000Y-73895000D01*
X186170000Y-73895000D02*
X187500000Y-73895000D01*
%TO.C,C502*%
X181735000Y-78761252D02*
X181735000Y-78238748D01*
X180265000Y-78761252D02*
X180265000Y-78238748D01*
%TO.C,C501*%
X181735000Y-74761252D02*
X181735000Y-74238748D01*
X180265000Y-74761252D02*
X180265000Y-74238748D01*
%TO.C,U001*%
X167100000Y-88000000D02*
X167500000Y-88000000D01*
X134000000Y-109000000D02*
X134400000Y-109000000D01*
X126500000Y-88000000D02*
X126800000Y-88000000D01*
X154300000Y-109000000D02*
X154700000Y-109000000D01*
X134000000Y-88000000D02*
X134400000Y-88000000D01*
X164500000Y-88000000D02*
X164900000Y-88000000D01*
X172100000Y-88000000D02*
X172500000Y-88000000D01*
X126500000Y-109000000D02*
X126800000Y-109000000D01*
X144200000Y-88000000D02*
X144600000Y-88000000D01*
X169600000Y-88000000D02*
X170000000Y-88000000D01*
X141600000Y-88000000D02*
X142000000Y-88000000D01*
X159400000Y-88000000D02*
X159800000Y-88000000D01*
X164500000Y-109000000D02*
X164900000Y-109000000D01*
X169600000Y-109000000D02*
X170000000Y-109000000D01*
X151800000Y-109000000D02*
X152200000Y-109000000D01*
X141600000Y-109000000D02*
X142000000Y-109000000D01*
X154300000Y-88000000D02*
X154700000Y-88000000D01*
X162000000Y-109000000D02*
X162400000Y-109000000D01*
X139100000Y-88000000D02*
X139500000Y-88000000D01*
X177500000Y-97400000D02*
X177500000Y-97000000D01*
X167100000Y-109000000D02*
X167500000Y-109000000D01*
X131500000Y-88000000D02*
X131900000Y-88000000D01*
X139100000Y-109000000D02*
X139500000Y-109000000D01*
X177500000Y-100000000D02*
X177500000Y-99600000D01*
X156900000Y-109000000D02*
X157300000Y-109000000D01*
X144200000Y-109000000D02*
X144600000Y-109000000D01*
X129167000Y-109000000D02*
X129167000Y-105993000D01*
X159400000Y-109000000D02*
X159800000Y-109000000D01*
X136600000Y-88000000D02*
X137000000Y-88000000D01*
X177500000Y-88000000D02*
X177500000Y-94800000D01*
X149300000Y-88000000D02*
X149700000Y-88000000D01*
X146700000Y-109000000D02*
X147100000Y-109000000D01*
X136600000Y-109000000D02*
X137000000Y-109000000D01*
X174700000Y-109000000D02*
X175100000Y-109000000D01*
X149300000Y-109000000D02*
X149700000Y-109000000D01*
X172100000Y-109000000D02*
X172500000Y-109000000D01*
X126500000Y-109000000D02*
X126500000Y-88000000D01*
X146700000Y-88000000D02*
X147100000Y-88000000D01*
X129167000Y-105993000D02*
X126500000Y-105993000D01*
X128900000Y-88000000D02*
X129300000Y-88000000D01*
X174700000Y-88000000D02*
X175100000Y-88000000D01*
X151800000Y-88000000D02*
X152200000Y-88000000D01*
X177500000Y-102200000D02*
X177500000Y-109000000D01*
X162000000Y-88000000D02*
X162400000Y-88000000D01*
X131500000Y-109000000D02*
X131900000Y-109000000D01*
X128900000Y-109000000D02*
X129300000Y-109000000D01*
X156900000Y-88000000D02*
X157300000Y-88000000D01*
%TO.C,J502*%
X132910000Y-69290000D02*
X130090000Y-69290000D01*
X130090000Y-69290000D02*
X128790000Y-70990000D01*
X132910000Y-69290000D02*
X134210000Y-70990000D01*
X128790000Y-70990000D02*
X128790000Y-79710000D01*
X134210000Y-79710000D02*
X128790000Y-79710000D01*
X134210000Y-70990000D02*
X134210000Y-79710000D01*
%TO.C,U101*%
X187000000Y-94510000D02*
X190860000Y-94510000D01*
X190860000Y-94510000D02*
X190860000Y-94255000D01*
X187000000Y-94510000D02*
X183140000Y-94510000D01*
X183140000Y-94510000D02*
X183140000Y-94255000D01*
X187000000Y-83990000D02*
X190860000Y-83990000D01*
X190860000Y-83990000D02*
X190860000Y-84245000D01*
X187000000Y-83990000D02*
X183140000Y-83990000D01*
X183140000Y-83990000D02*
X183140000Y-84245000D01*
X183140000Y-84245000D02*
X181325000Y-84245000D01*
%TO.C,R701*%
X165820000Y-114246359D02*
X165820000Y-114553641D01*
X166580000Y-114246359D02*
X166580000Y-114553641D01*
%TO.C,R601*%
X172879999Y-84366142D02*
X172879999Y-84058860D01*
X172119999Y-84366142D02*
X172119999Y-84058860D01*
%TO.C,R411*%
X142080000Y-84153641D02*
X142080000Y-83846359D01*
X141320000Y-84153641D02*
X141320000Y-83846359D01*
%TO.C,R401*%
X157340000Y-84153641D02*
X157340000Y-83846359D01*
X156580000Y-84153641D02*
X156580000Y-83846359D01*
%TO.C,R214*%
X151620000Y-76153641D02*
X151620000Y-75846359D01*
X152380000Y-76153641D02*
X152380000Y-75846359D01*
%TO.C,R213*%
X152380000Y-73846359D02*
X152380000Y-74153641D01*
X151620000Y-73846359D02*
X151620000Y-74153641D01*
%TO.C,R212*%
X150620000Y-84153641D02*
X150620000Y-83846359D01*
X151380000Y-84153641D02*
X151380000Y-83846359D01*
%TO.C,R211*%
X152380000Y-79356358D02*
X152380000Y-79663640D01*
X151620000Y-79356358D02*
X151620000Y-79663640D01*
%TO.C,R204*%
X166880000Y-76153641D02*
X166880000Y-75846359D01*
X167640000Y-76153641D02*
X167640000Y-75846359D01*
%TO.C,R203*%
X166880000Y-73846359D02*
X166880000Y-74153641D01*
X167640000Y-73846359D02*
X167640000Y-74153641D01*
%TO.C,R202*%
X165880000Y-84153641D02*
X165880000Y-83846359D01*
X166640000Y-84153641D02*
X166640000Y-83846359D01*
%TO.C,R201*%
X166880000Y-79356358D02*
X166880000Y-79663640D01*
X167640000Y-79356358D02*
X167640000Y-79663640D01*
%TO.C,R104*%
X193620000Y-87153641D02*
X193620000Y-86846359D01*
X194380000Y-87153641D02*
X194380000Y-86846359D01*
%TO.C,R103*%
X194380000Y-91153641D02*
X194380000Y-90846359D01*
X193620000Y-91153641D02*
X193620000Y-90846359D01*
%TO.C,R102*%
X194380000Y-89153641D02*
X194380000Y-88846359D01*
X193620000Y-89153641D02*
X193620000Y-88846359D01*
%TO.C,R101*%
X179620000Y-89596359D02*
X179620000Y-89903641D01*
X180380000Y-89596359D02*
X180380000Y-89903641D01*
%TO.C,PS101*%
X188842500Y-107807500D02*
X188842500Y-106607500D01*
X187642500Y-107807500D02*
X188842500Y-107807500D01*
X182252500Y-95787500D02*
X188592500Y-95787500D01*
X188592500Y-107557500D02*
X188592500Y-95787500D01*
X182252500Y-107557500D02*
X188592500Y-107557500D01*
X182252500Y-107557500D02*
X182252500Y-95787500D01*
%TO.C,J103*%
X206885000Y-90330000D02*
X206885000Y-87670000D01*
X201745000Y-90330000D02*
X206885000Y-90330000D01*
X201745000Y-87670000D02*
X206885000Y-87670000D01*
X201745000Y-90330000D02*
X201745000Y-87670000D01*
X200475000Y-90330000D02*
X199145000Y-90330000D01*
X199145000Y-90330000D02*
X199145000Y-89000000D01*
%TO.C,J102*%
X213510000Y-85770000D02*
X206920000Y-85770000D01*
X213510000Y-60230000D02*
X206920000Y-60230000D01*
X206920000Y-63630000D02*
X206920000Y-60230000D01*
X206920000Y-85770000D02*
X206920000Y-82070000D01*
X213510000Y-61730000D02*
X216210000Y-61730000D01*
X213510000Y-83970000D02*
X216210000Y-83970000D01*
X213510000Y-83970000D02*
X213510000Y-85770000D01*
X213510000Y-60230000D02*
X213510000Y-61730000D01*
X216210000Y-61730000D02*
X216210000Y-83970000D01*
X201270000Y-79270000D02*
X201270000Y-82070000D01*
X201270000Y-66430000D02*
X194070000Y-66430000D01*
X201270000Y-79270000D02*
X194070000Y-79270000D01*
X194070000Y-72150000D02*
X194070000Y-70250000D01*
X194070000Y-66430000D02*
X194070000Y-67850000D01*
X206920000Y-63630000D02*
X201270000Y-63630000D01*
X201270000Y-66430000D02*
X201270000Y-63630000D01*
X194070000Y-73550000D02*
X194070000Y-75450000D01*
X194070000Y-77850000D02*
X194070000Y-79270000D01*
X206920000Y-82070000D02*
X201270000Y-82070000D01*
%TO.C,J101*%
X201280000Y-94130000D02*
X201280000Y-96880000D01*
X201280000Y-96880000D02*
X193780000Y-96880000D01*
X201280000Y-113120000D02*
X193780000Y-113120000D01*
X201280000Y-113120000D02*
X201280000Y-115870000D01*
X193780000Y-96880000D02*
X193780000Y-113120000D01*
X216220000Y-93880000D02*
X216220000Y-116120000D01*
X213520000Y-92380000D02*
X213520000Y-93880000D01*
X213520000Y-116120000D02*
X213520000Y-117620000D01*
X213520000Y-116120000D02*
X216220000Y-116120000D01*
X213520000Y-93880000D02*
X216220000Y-93880000D01*
X206780000Y-117620000D02*
X206780000Y-115870000D01*
X206780000Y-94130000D02*
X206780000Y-92380000D01*
X206780000Y-115870000D02*
X201280000Y-115870000D01*
X206780000Y-94130000D02*
X201280000Y-94130000D01*
X213520000Y-92380000D02*
X206780000Y-92380000D01*
X213520000Y-117620000D02*
X206780000Y-117620000D01*
%TO.C,J001*%
X151830000Y-115000000D02*
X151830000Y-116330000D01*
X151830000Y-116330000D02*
X150500000Y-116330000D01*
X149230000Y-116330000D02*
X136470000Y-116330000D01*
X136470000Y-113670000D02*
X136470000Y-116330000D01*
X149230000Y-113670000D02*
X136470000Y-113670000D01*
X149230000Y-113670000D02*
X149230000Y-116330000D01*
%TO.C,D601*%
X173265000Y-83200000D02*
X173265000Y-85485000D01*
X173265000Y-85485000D02*
X174735000Y-85485000D01*
X174735000Y-85485000D02*
X174735000Y-83200000D01*
%TO.C,D411*%
X139665000Y-83200000D02*
X139665000Y-85485000D01*
X139665000Y-85485000D02*
X141135000Y-85485000D01*
X141135000Y-85485000D02*
X141135000Y-83200000D01*
%TO.C,D401*%
X154925000Y-83200000D02*
X154925000Y-85485000D01*
X154925000Y-85485000D02*
X156395000Y-85485000D01*
X156395000Y-85485000D02*
X156395000Y-83200000D01*
%TO.C,D301*%
X153850000Y-112750000D02*
X153850000Y-113900000D01*
X161150000Y-112750000D02*
X153850000Y-112750000D01*
X161150000Y-118250000D02*
X153850000Y-118250000D01*
%TO.C,D211*%
X148965000Y-83200000D02*
X148965000Y-85485000D01*
X148965000Y-85485000D02*
X150435000Y-85485000D01*
X150435000Y-85485000D02*
X150435000Y-83200000D01*
%TO.C,D201*%
X165695000Y-85485000D02*
X165695000Y-83200000D01*
X164225000Y-85485000D02*
X165695000Y-85485000D01*
X164225000Y-83200000D02*
X164225000Y-85485000D01*
%TO.C,C301*%
X162110000Y-116627836D02*
X162110000Y-116412164D01*
X161390000Y-116627836D02*
X161390000Y-116412164D01*
%TO.C,C102*%
X194360000Y-84642164D02*
X194360000Y-84857836D01*
X193640000Y-84642164D02*
X193640000Y-84857836D01*
%TO.C,C101*%
X180360000Y-84642164D02*
X180360000Y-84857836D01*
X179640000Y-84642164D02*
X179640000Y-84857836D01*
%TD*%
M02*
