M48
; DRILL file {KiCad (6.0.0-0)} date Monday, 24 October 2022 at 17:37:52
; FORMAT={-:-/ absolute / metric / decimal}
; #@! TF.CreationDate,2022-10-24T17:37:52+01:00
; #@! TF.GenerationSoftware,Kicad,Pcbnew,(6.0.0-0)
; #@! TF.FileFunction,Plated,1,2,PTH
FMAT,2
METRIC
; #@! TA.AperFunction,Plated,PTH,ViaDrill
T1C0.200
; #@! TA.AperFunction,Plated,PTH,ComponentDrill
T2C1.000
; #@! TA.AperFunction,Plated,PTH,ComponentDrill
T3C1.020
; #@! TA.AperFunction,Plated,PTH,ComponentDrill
T4C1.075
; #@! TA.AperFunction,Plated,PTH,ComponentDrill
T5C1.200
; #@! TA.AperFunction,Plated,PTH,ComponentDrill
T6C1.300
; #@! TA.AperFunction,Plated,PTH,ComponentDrill
T7C1.600
; #@! TA.AperFunction,Plated,PTH,ComponentDrill
T8C2.700
%
G90
G05
T1
X128.0Y-69.5
X128.0Y-72.5
X128.0Y-75.5
X128.0Y-78.5
X128.0Y-81.5
X128.0Y-84.5
X128.0Y-92.0
X128.0Y-98.5
X128.0Y-105.0
X131.0Y-84.5
X133.5Y-103.5
X134.0Y-84.5
X135.0Y-76.0
X135.0Y-79.0
X136.0Y-61.0
X136.0Y-77.5
X136.0Y-112.0
X136.0Y-115.0
X136.0Y-118.0
X137.0Y-76.0
X137.0Y-79.0
X137.0Y-84.5
X137.5Y-99.5
X137.7Y-95.8
X138.0Y-103.0
X138.5Y-77.5
X139.0Y-61.0
X139.0Y-76.0
X139.0Y-79.0
X139.0Y-118.0
X140.5Y-77.5
X140.5Y-101.0
X141.0Y-76.0
X141.5Y-93.5
X141.5Y-99.0
X142.0Y-61.0
X142.0Y-118.0
X142.5Y-77.0
X142.99Y-83.49
X143.0Y-76.0
X143.0Y-112.0
X144.0Y-101.5
X144.75Y-82.5
X145.0Y-61.0
X145.0Y-111.5
X145.0Y-118.0
X145.25Y-81.5
X145.25Y-83.5
X146.5Y-82.5
X146.5Y-84.5
X146.5Y-100.0
X147.0Y-81.5
X147.0Y-83.5
X148.0Y-61.0
X148.0Y-82.5
X148.0Y-84.5
X148.0Y-118.0
X148.5Y-104.0
X148.75Y-81.5
X151.0Y-61.0
X151.0Y-102.0
X151.0Y-118.0
X151.99Y-83.49
X152.0Y-77.39
X152.0Y-78.19
X153.0Y-76.434
X153.0Y-98.5
X153.5Y-115.5
X153.75Y-86.0
X154.0Y-61.0
X154.0Y-82.0
X154.0Y-118.0
X154.5Y-77.5
X154.5Y-103.5
X155.0Y-76.0
X155.0Y-79.0
X156.5Y-77.5
X156.5Y-81.0
X157.0Y-61.0
X157.0Y-76.0
X157.0Y-98.0
X157.0Y-118.0
X157.99Y-83.49
X158.0Y-103.5
X158.5Y-77.5
X159.0Y-76.0
X159.0Y-81.0
X159.0Y-99.5
X159.0Y-115.5
X160.0Y-61.0
X160.0Y-82.5
X160.5Y-81.5
X160.5Y-83.5
X161.75Y-82.5
X161.75Y-86.0
X162.25Y-81.5
X162.25Y-83.5
X163.0Y-61.0
X163.0Y-102.0
X163.0Y-118.0
X163.5Y-82.5
X164.0Y-81.5
X164.0Y-112.0
X164.5Y-114.5
X166.0Y-61.0
X166.5Y-112.5
X167.26Y-77.39
X167.26Y-78.19
X167.49Y-83.49
X167.5Y-116.5
X168.0Y-98.5
X168.0Y-104.5
X168.2Y-76.434
X168.5Y-85.0
X169.0Y-61.0
X170.0Y-74.0
X170.0Y-77.0
X170.0Y-80.0
X170.0Y-83.0
X170.5Y-85.5
X171.0Y-97.5
X171.0Y-100.5
X172.0Y-61.0
X173.0Y-74.0
X173.0Y-77.0
X173.0Y-80.0
X175.0Y-61.0
X175.5Y-83.5
X176.5Y-84.5
X178.0Y-61.0
X178.0Y-84.0
X179.0Y-85.0
X180.5Y-97.5
X180.5Y-100.0
X181.0Y-61.0
X181.25Y-116.0
X181.5Y-112.0
X182.0Y-81.0
X182.0Y-95.5
X182.0Y-98.5
X182.0Y-102.5
X182.0Y-107.0
X182.25Y-115.0
X182.5Y-118.0
X183.5Y-75.0
X183.75Y-82.25
X184.0Y-61.0
X184.5Y-81.5
X185.5Y-62.0
X185.5Y-65.0
X185.5Y-68.0
X185.5Y-71.0
X185.5Y-74.0
X185.5Y-83.0
X185.5Y-92.0
X185.5Y-95.0
X185.5Y-106.0
X185.5Y-109.0
X185.5Y-112.0
X185.5Y-115.0
X185.5Y-118.0
X189.5Y-86.25
X189.5Y-118.0
X190.0Y-68.0
X190.0Y-71.0
X190.0Y-74.0
X190.0Y-77.0
X190.0Y-80.0
X190.0Y-83.0
X190.5Y-97.0
X190.5Y-100.0
X190.5Y-103.0
X190.5Y-106.0
X190.5Y-109.0
X192.0Y-111.0
X192.5Y-67.0
X193.0Y-82.0
X193.0Y-118.0
X194.0Y-65.0
X194.0Y-92.25
X194.0Y-114.0
X194.5Y-62.5
X195.0Y-96.0
X195.5Y-61.0
X195.5Y-101.5
X195.5Y-117.0
X196.0Y-111.5
X197.0Y-84.5
X197.5Y-87.5
X198.5Y-61.0
X198.5Y-63.0
X198.5Y-117.0
X199.5Y-79.5
X199.5Y-85.5
X200.0Y-66.5
X200.5Y-77.5
X201.0Y-97.0
X201.5Y-61.0
X201.5Y-113.0
X201.5Y-117.0
X203.0Y-80.5
X203.0Y-93.5
X203.0Y-98.0
X203.5Y-83.0
X204.5Y-61.0
X204.5Y-63.0
X204.5Y-117.0
X205.0Y-74.5
X205.0Y-79.0
X205.5Y-66.5
X205.5Y-114.5
X207.5Y-61.0
X207.5Y-117.0
X208.0Y-87.0
X208.0Y-97.0
X208.0Y-106.5
X209.5Y-112.0
X210.0Y-82.0
X210.5Y-61.0
X210.5Y-64.0
X210.5Y-117.0
X211.0Y-77.0
X211.5Y-87.5
X211.5Y-93.0
X211.5Y-98.0
X212.5Y-72.5
X212.5Y-107.5
X213.0Y-82.5
X213.5Y-61.0
X213.5Y-117.0
X214.5Y-62.0
X214.5Y-65.0
X214.5Y-68.0
X214.5Y-71.0
X214.5Y-74.0
X214.5Y-77.0
X214.5Y-80.0
X214.5Y-83.0
X214.5Y-86.0
X214.5Y-89.0
X214.5Y-92.0
X214.5Y-95.0
X214.5Y-98.0
X214.5Y-101.0
X214.5Y-104.0
X214.5Y-107.0
X214.5Y-110.0
X214.5Y-113.0
X214.5Y-116.0
T2
X137.8Y-115.0
X140.34Y-115.0
X142.88Y-115.0
X145.42Y-115.0
X147.96Y-115.0
X150.5Y-115.0
X170.25Y-115.162
X174.75Y-115.162
X187.5Y-75.225
X187.5Y-77.765
X200.475Y-89.0
X203.015Y-89.0
X205.555Y-89.0
T3
X127.87Y-89.61
X127.87Y-107.39
X130.41Y-89.61
X130.41Y-107.39
X132.95Y-89.61
X132.95Y-107.39
X135.49Y-89.61
X135.49Y-107.39
X138.03Y-89.61
X138.03Y-107.39
X140.57Y-89.61
X140.57Y-107.39
X143.11Y-89.61
X143.11Y-107.39
X145.65Y-89.61
X145.65Y-107.39
X148.19Y-89.61
X148.19Y-107.39
X150.73Y-89.61
X150.73Y-107.39
X153.27Y-89.61
X153.27Y-107.39
X155.81Y-89.61
X155.81Y-107.39
X158.35Y-89.61
X158.35Y-107.39
X160.89Y-89.61
X160.89Y-107.39
X163.43Y-89.61
X163.43Y-107.39
X165.97Y-89.61
X165.97Y-107.39
X168.51Y-89.61
X168.51Y-107.39
X171.05Y-89.61
X171.05Y-107.39
X173.59Y-89.61
X173.59Y-107.39
X175.9Y-95.96
X175.9Y-98.5
X175.9Y-101.04
X176.13Y-89.61
X176.13Y-107.39
T4
X187.343Y-97.737
X187.343Y-100.277
X187.343Y-102.817
X187.343Y-105.358
T5
X195.61Y-72.85
X196.25Y-105.0
X200.69Y-72.85
T6
X169.0Y-112.662
X176.0Y-112.662
T7
X141.19Y-66.6
X148.81Y-66.6
X156.44Y-66.6
X164.06Y-66.6
X171.68Y-66.6
X179.3Y-66.6
X195.61Y-69.04
X195.61Y-76.66
X200.065Y-108.81
X200.7Y-101.19
T8
X131.5Y-72.0
X131.5Y-77.0
T0
M30
