%TF.GenerationSoftware,KiCad,Pcbnew,(6.0.0-0)*%
%TF.CreationDate,2022-10-24T17:37:50+01:00*%
%TF.ProjectId,PicoPyro,5069636f-5079-4726-9f2e-6b696361645f,rev?*%
%TF.SameCoordinates,Original*%
%TF.FileFunction,Soldermask,Top*%
%TF.FilePolarity,Negative*%
%FSLAX46Y46*%
G04 Gerber Fmt 4.6, Leading zero omitted, Abs format (unit mm)*
G04 Created by KiCad (PCBNEW (6.0.0-0)) date 2022-10-24 17:37:50*
%MOMM*%
%LPD*%
G01*
G04 APERTURE LIST*
G04 Aperture macros list*
%AMRoundRect*
0 Rectangle with rounded corners*
0 $1 Rounding radius*
0 $2 $3 $4 $5 $6 $7 $8 $9 X,Y pos of 4 corners*
0 Add a 4 corners polygon primitive as box body*
4,1,4,$2,$3,$4,$5,$6,$7,$8,$9,$2,$3,0*
0 Add four circle primitives for the rounded corners*
1,1,$1+$1,$2,$3*
1,1,$1+$1,$4,$5*
1,1,$1+$1,$6,$7*
1,1,$1+$1,$8,$9*
0 Add four rect primitives between the rounded corners*
20,1,$1+$1,$2,$3,$4,$5,0*
20,1,$1+$1,$4,$5,$6,$7,0*
20,1,$1+$1,$6,$7,$8,$9,0*
20,1,$1+$1,$8,$9,$2,$3,0*%
G04 Aperture macros list end*
%ADD10RoundRect,0.042000X-0.258000X0.833000X-0.258000X-0.833000X0.258000X-0.833000X0.258000X0.833000X0*%
%ADD11R,3.630000X2.300000*%
%ADD12R,1.500000X1.500000*%
%ADD13C,1.500000*%
%ADD14C,1.950000*%
%ADD15R,0.650000X1.100000*%
%ADD16R,0.850000X1.450000*%
%ADD17R,0.850000X1.050000*%
%ADD18R,4.700000X3.750000*%
%ADD19R,2.400000X2.400000*%
%ADD20C,2.400000*%
%ADD21R,2.800000X2.150000*%
%ADD22R,1.700000X1.700000*%
%ADD23O,1.700000X1.700000*%
%ADD24RoundRect,0.250000X0.475000X-0.337500X0.475000X0.337500X-0.475000X0.337500X-0.475000X-0.337500X0*%
%ADD25R,3.500000X1.700000*%
%ADD26R,1.700000X3.500000*%
%ADD27O,1.500000X1.500000*%
%ADD28O,1.800000X1.800000*%
%ADD29C,4.000000*%
%ADD30R,3.800000X3.800000*%
%ADD31C,6.200000*%
%ADD32RoundRect,0.150000X-0.875000X-0.150000X0.875000X-0.150000X0.875000X0.150000X-0.875000X0.150000X0*%
%ADD33RoundRect,0.135000X-0.185000X0.135000X-0.185000X-0.135000X0.185000X-0.135000X0.185000X0.135000X0*%
%ADD34RoundRect,0.135000X0.185000X-0.135000X0.185000X0.135000X-0.185000X0.135000X-0.185000X-0.135000X0*%
%ADD35R,2.250000X1.750000*%
%ADD36O,2.250000X1.750000*%
%ADD37C,3.400000*%
%ADD38C,2.900000*%
%ADD39C,1.600000*%
%ADD40RoundRect,0.218750X0.256250X-0.218750X0.256250X0.218750X-0.256250X0.218750X-0.256250X-0.218750X0*%
%ADD41R,1.500000X1.000000*%
%ADD42RoundRect,0.140000X0.170000X-0.140000X0.170000X0.140000X-0.170000X0.140000X-0.170000X-0.140000X0*%
%ADD43RoundRect,0.140000X-0.170000X0.140000X-0.170000X-0.140000X0.170000X-0.140000X0.170000X0.140000X0*%
G04 APERTURE END LIST*
D10*
%TO.C,U501*%
X178905000Y-73915000D03*
X177635000Y-73915000D03*
X176365000Y-73915000D03*
X175095000Y-73915000D03*
X175095000Y-79085000D03*
X176365000Y-79085000D03*
X177635000Y-79085000D03*
X178905000Y-79085000D03*
D11*
X177000000Y-76500000D03*
%TD*%
D12*
%TO.C,S701*%
X174750000Y-115162500D03*
D13*
X170250000Y-115162500D03*
D14*
X176000000Y-112662500D03*
X169000000Y-112662500D03*
%TD*%
D15*
%TO.C,Q501*%
X183040000Y-80550000D03*
X184960000Y-80550000D03*
X184000000Y-78450000D03*
%TD*%
D16*
%TO.C,Q211*%
X145895000Y-79837500D03*
X147165000Y-79837500D03*
X148435000Y-79837500D03*
X149705000Y-79837500D03*
D17*
X149705000Y-74137500D03*
X148435000Y-74137500D03*
X147165000Y-74137500D03*
X145895000Y-74137500D03*
D18*
X147800000Y-76537500D03*
%TD*%
D16*
%TO.C,Q201*%
X161155000Y-79850000D03*
X162425000Y-79850000D03*
X163695000Y-79850000D03*
X164965000Y-79850000D03*
D17*
X164965000Y-74150000D03*
X163695000Y-74150000D03*
X162425000Y-74150000D03*
X161155000Y-74150000D03*
D18*
X163060000Y-76550000D03*
%TD*%
D19*
%TO.C,J501*%
X179300000Y-66600000D03*
D20*
X171680000Y-66600000D03*
%TD*%
D19*
%TO.C,J202*%
X148810000Y-66600000D03*
D20*
X141190000Y-66600000D03*
%TD*%
D19*
%TO.C,J201*%
X164060000Y-66600000D03*
D20*
X156440000Y-66600000D03*
%TD*%
D21*
%TO.C,F211*%
X142500000Y-74045000D03*
X142500000Y-78955000D03*
%TD*%
%TO.C,F201*%
X157500000Y-74045000D03*
X157500000Y-78955000D03*
%TD*%
D22*
%TO.C,J503*%
X187500000Y-75225000D03*
D23*
X187500000Y-77765000D03*
%TD*%
D24*
%TO.C,C502*%
X181000000Y-77462500D03*
X181000000Y-79537500D03*
%TD*%
%TO.C,C501*%
X181000000Y-73462500D03*
X181000000Y-75537500D03*
%TD*%
D25*
%TO.C,U001*%
X176800000Y-95960000D03*
D23*
X175900000Y-95960000D03*
D25*
X176800000Y-98500000D03*
D22*
X175900000Y-98500000D03*
D23*
X175900000Y-101040000D03*
D25*
X176800000Y-101040000D03*
D26*
X127870000Y-88710000D03*
D23*
X127870000Y-89610000D03*
X130410000Y-89610000D03*
D26*
X130410000Y-88710000D03*
D22*
X132950000Y-89610000D03*
D26*
X132950000Y-88710000D03*
D23*
X135490000Y-89610000D03*
D26*
X135490000Y-88710000D03*
X138030000Y-88710000D03*
D23*
X138030000Y-89610000D03*
X140570000Y-89610000D03*
D26*
X140570000Y-88710000D03*
D23*
X143110000Y-89610000D03*
D26*
X143110000Y-88710000D03*
D22*
X145650000Y-89610000D03*
D26*
X145650000Y-88710000D03*
X148190000Y-88710000D03*
D23*
X148190000Y-89610000D03*
D26*
X150730000Y-88710000D03*
D23*
X150730000Y-89610000D03*
X153270000Y-89610000D03*
D26*
X153270000Y-88710000D03*
X155810000Y-88710000D03*
D23*
X155810000Y-89610000D03*
D26*
X158350000Y-88710000D03*
D22*
X158350000Y-89610000D03*
D26*
X160890000Y-88710000D03*
D23*
X160890000Y-89610000D03*
X163430000Y-89610000D03*
D26*
X163430000Y-88710000D03*
D23*
X165970000Y-89610000D03*
D26*
X165970000Y-88710000D03*
X168510000Y-88710000D03*
D23*
X168510000Y-89610000D03*
D22*
X171050000Y-89610000D03*
D26*
X171050000Y-88710000D03*
D23*
X173590000Y-89610000D03*
D26*
X173590000Y-88710000D03*
D23*
X176130000Y-89610000D03*
D26*
X176130000Y-88710000D03*
D23*
X176130000Y-107390000D03*
D26*
X176130000Y-108290000D03*
X173590000Y-108290000D03*
D23*
X173590000Y-107390000D03*
D22*
X171050000Y-107390000D03*
D26*
X171050000Y-108290000D03*
D23*
X168510000Y-107390000D03*
D26*
X168510000Y-108290000D03*
D23*
X165970000Y-107390000D03*
D26*
X165970000Y-108290000D03*
X163430000Y-108290000D03*
D23*
X163430000Y-107390000D03*
X160890000Y-107390000D03*
D26*
X160890000Y-108290000D03*
X158350000Y-108290000D03*
D22*
X158350000Y-107390000D03*
D26*
X155810000Y-108290000D03*
D23*
X155810000Y-107390000D03*
X153270000Y-107390000D03*
D26*
X153270000Y-108290000D03*
X150730000Y-108290000D03*
D23*
X150730000Y-107390000D03*
X148190000Y-107390000D03*
D26*
X148190000Y-108290000D03*
X145650000Y-108290000D03*
D22*
X145650000Y-107390000D03*
D23*
X143110000Y-107390000D03*
D26*
X143110000Y-108290000D03*
X140570000Y-108290000D03*
D23*
X140570000Y-107390000D03*
D26*
X138030000Y-108290000D03*
D23*
X138030000Y-107390000D03*
D26*
X135490000Y-108290000D03*
D23*
X135490000Y-107390000D03*
D22*
X132950000Y-107390000D03*
D26*
X132950000Y-108290000D03*
X130410000Y-108290000D03*
D23*
X130410000Y-107390000D03*
D26*
X127870000Y-108290000D03*
D23*
X127870000Y-107390000D03*
D27*
X131030000Y-96075000D03*
X131030000Y-100925000D03*
D28*
X128000000Y-101225000D03*
X128000000Y-95775000D03*
%TD*%
D29*
%TO.C,J502*%
X131500000Y-77000000D03*
D30*
X131500000Y-72000000D03*
%TD*%
D31*
%TO.C,*%
X189500000Y-114500000D03*
%TD*%
%TO.C,*%
X189500000Y-63500000D03*
%TD*%
%TO.C,*%
X131000000Y-114500000D03*
%TD*%
%TO.C,*%
X131000000Y-63500000D03*
%TD*%
D32*
%TO.C,U101*%
X182350000Y-84805000D03*
X182350000Y-86075000D03*
X182350000Y-87345000D03*
X182350000Y-88615000D03*
X182350000Y-89885000D03*
X182350000Y-91155000D03*
X182350000Y-92425000D03*
X182350000Y-93695000D03*
X191650000Y-93695000D03*
X191650000Y-92425000D03*
X191650000Y-91155000D03*
X191650000Y-89885000D03*
X191650000Y-88615000D03*
X191650000Y-87345000D03*
X191650000Y-86075000D03*
X191650000Y-84805000D03*
%TD*%
D33*
%TO.C,R701*%
X166200000Y-114910000D03*
X166200000Y-113890000D03*
%TD*%
D34*
%TO.C,R601*%
X172499999Y-83702501D03*
X172499999Y-84722501D03*
%TD*%
%TO.C,R411*%
X141700000Y-83490000D03*
X141700000Y-84510000D03*
%TD*%
%TO.C,R401*%
X156960000Y-83490000D03*
X156960000Y-84510000D03*
%TD*%
%TO.C,R214*%
X152000000Y-76510000D03*
X152000000Y-75490000D03*
%TD*%
D33*
%TO.C,R213*%
X152000000Y-73490000D03*
X152000000Y-74510000D03*
%TD*%
D34*
%TO.C,R212*%
X151000000Y-84510000D03*
X151000000Y-83490000D03*
%TD*%
D33*
%TO.C,R211*%
X152000000Y-78999999D03*
X152000000Y-80019999D03*
%TD*%
D34*
%TO.C,R204*%
X167260000Y-76510000D03*
X167260000Y-75490000D03*
%TD*%
D33*
%TO.C,R203*%
X167260000Y-74510000D03*
X167260000Y-73490000D03*
%TD*%
D34*
%TO.C,R202*%
X166260000Y-84510000D03*
X166260000Y-83490000D03*
%TD*%
D33*
%TO.C,R201*%
X167260000Y-80019999D03*
X167260000Y-78999999D03*
%TD*%
D34*
%TO.C,R104*%
X194000000Y-87510000D03*
X194000000Y-86490000D03*
%TD*%
%TO.C,R103*%
X194000000Y-90490000D03*
X194000000Y-91510000D03*
%TD*%
%TO.C,R102*%
X194000000Y-88490000D03*
X194000000Y-89510000D03*
%TD*%
D33*
%TO.C,R101*%
X180000000Y-90260000D03*
X180000000Y-89240000D03*
%TD*%
D35*
%TO.C,PS101*%
X187342500Y-105357500D03*
D36*
X187342500Y-102817500D03*
X187342500Y-100277500D03*
X187342500Y-97737500D03*
%TD*%
D22*
%TO.C,J103*%
X200475000Y-89000000D03*
D23*
X203015000Y-89000000D03*
X205555000Y-89000000D03*
%TD*%
D37*
%TO.C,J102*%
X195610000Y-69040000D03*
X195610000Y-76660000D03*
D38*
X195610000Y-72850000D03*
D39*
X209580000Y-69040000D03*
X204500000Y-76660000D03*
D38*
X200690000Y-72850000D03*
%TD*%
D39*
%TO.C,J101*%
X204510000Y-108810000D03*
X209590000Y-101190000D03*
D38*
X196250000Y-105000000D03*
D37*
X200065000Y-108810000D03*
X200700000Y-101190000D03*
%TD*%
D23*
%TO.C,J001*%
X137800000Y-115000000D03*
X140340000Y-115000000D03*
X142880000Y-115000000D03*
X145420000Y-115000000D03*
X147960000Y-115000000D03*
D22*
X150500000Y-115000000D03*
%TD*%
D40*
%TO.C,D601*%
X174000000Y-84787500D03*
X174000000Y-83212500D03*
%TD*%
%TO.C,D411*%
X140400000Y-84787500D03*
X140400000Y-83212500D03*
%TD*%
%TO.C,D401*%
X155660000Y-84787500D03*
X155660000Y-83212500D03*
%TD*%
D41*
%TO.C,D301*%
X159950000Y-117100000D03*
X159950000Y-113900000D03*
X155050000Y-117100000D03*
X155050000Y-113900000D03*
%TD*%
D40*
%TO.C,D211*%
X149700000Y-84787500D03*
X149700000Y-83212500D03*
%TD*%
%TO.C,D201*%
X164960000Y-83212500D03*
X164960000Y-84787500D03*
%TD*%
D42*
%TO.C,C301*%
X161750000Y-116040000D03*
X161750000Y-117000000D03*
%TD*%
D43*
%TO.C,C102*%
X194000000Y-84270000D03*
X194000000Y-85230000D03*
%TD*%
%TO.C,C101*%
X180000000Y-84270000D03*
X180000000Y-85230000D03*
%TD*%
M02*
